<svg xmlns="http://www.w3.org/2000/svg" viewBox="0 0 442.36 259.66"><defs><style>.cls-1{fill:#2e4500;}.cls-1,.cls-2{fill-rule:evenodd;}.cls-2{fill:#3d2c00;}</style></defs><g id="Layer_2" data-name="Layer 2"><g id="OBJECTS"><path class="cls-1" d="M34.18,140.24a55.81,55.81,0,0,0-3.58-8.76c-1.25-2.22-2.36-4.52-3.6-6.91a10.29,10.29,0,0,1-1.95.49,8.27,8.27,0,0,1-5-.79,9.77,9.77,0,0,0-2.56-.92c-3.8-.95-6.52-3.4-8.92-6.32a21.59,21.59,0,0,1-4.26-8.3c-.7-2.62-1.63-5.18-2.53-7.75a12.16,12.16,0,0,1-.66-4A11,11,0,0,0,3,97.68a7.23,7.23,0,0,0,1.75-.14c.61.4.83,1.39,1.8,1.46a1.61,1.61,0,0,1,.88.42c2.45,2.21,5.31,3.89,7.82,6.06a44.48,44.48,0,0,1,6.23,6.27,25.37,25.37,0,0,0,2.38,2.37c0-1.83-1.58-8.57-2.94-12.77a8.3,8.3,0,0,0-1.75-.47,3.16,3.16,0,0,1-2.15-1.08c-.52-.53-1.07-1-1.58-1.57a14.19,14.19,0,0,0-3.66-2.92,2.9,2.9,0,0,1-1.27-1.12,18,18,0,0,0-3.72-4.28A7.83,7.83,0,0,1,4.88,86.8a38.53,38.53,0,0,0-2.34-5.16,17.92,17.92,0,0,1-2.2-7A46.48,46.48,0,0,1,.3,64c.06-.4.15-.79.25-1.32A15,15,0,0,1,4.3,63.8a5.2,5.2,0,0,1,2.63,2.48A18.88,18.88,0,0,0,9,69a108.08,108.08,0,0,1,8.52,11.55,4.48,4.48,0,0,0,1.66,2c0-.61.07-1.09.1-1.69-2.77-1.83-3.65-4.92-5-7.73a8.57,8.57,0,0,1-.72-3.86c.05-3,0-6.11.1-9.16a16.43,16.43,0,0,1,.51-3.41c1-3.92,1.92-7.86,3.06-11.74A56.88,56.88,0,0,1,21,35.26a3.9,3.9,0,0,1,1.17-1.52,6.94,6.94,0,0,0,2.63-3.18c.27-.68.75-.73,1.42-.39a2.08,2.08,0,0,1,1.3,1.94c0,.74,0,1.49.05,2.23A4.11,4.11,0,0,0,28,36.23a6.55,6.55,0,0,1,1,3.27,3.87,3.87,0,0,0,.12,1c.92,2.14.55,4.36.53,6.57,0,4.05,0,8.09.1,12.14a23.24,23.24,0,0,1-1.68,8.94,40.05,40.05,0,0,0-1.49,4.45A63.86,63.86,0,0,1,24,79.78c-.12.3-.21.7-.44.86-1.33.91-1.17,2.26-1.17,3.58a17.13,17.13,0,0,0,.33,4.37,12,12,0,0,0,.58-1.51,14.23,14.23,0,0,1,1.94-4.25c1.14-1.72,2.14-3.53,3.14-5.33a6.17,6.17,0,0,1,2.12-2.36,14,14,0,0,0,1.92-1.53c2-1.8,4.07-3.62,6.13-5.4a5.4,5.4,0,0,1,1.65-1.06,8.62,8.62,0,0,0,3.37-2,2.09,2.09,0,0,1,1.34-.48c1.31,0,2.62,0,3.82.09a3.7,3.7,0,0,1,.41,4.87,70.82,70.82,0,0,0-3.29,6.65,10,10,0,0,1-2.53,3.62,6.86,6.86,0,0,0-1.81,2.63,10.35,10.35,0,0,1-2.43,3.4,20.07,20.07,0,0,0-2.25,2.62,23.13,23.13,0,0,1-7,6.53c-.71.42-1.39.9-2.08,1.36a5.37,5.37,0,0,1-3.36,1.32c-.45,1-.89,1.94-.15,3a1.31,1.31,0,0,1,.18.95c-.33,1.46.25,2.76.62,4.1q1.09,3.94,2.23,7.86a15,15,0,0,0,.79,1.73,21.8,21.8,0,0,0,.65-3.08,8.6,8.6,0,0,1,.95-3.56A22.08,22.08,0,0,1,33.38,103c2-2,4-4.21,6.08-6.18a27.72,27.72,0,0,1,7.44-5.27,1.32,1.32,0,0,1,.72,1.82,25.53,25.53,0,0,0-1.27,5,8.24,8.24,0,0,1-.41,1.68c-.68,2-1.37,4-2.11,6.07a16,16,0,0,1-.88,1.76,20.39,20.39,0,0,0-1.28,2.67,7.83,7.83,0,0,1-2.12,3.3A19.94,19.94,0,0,0,36,118.58a24.3,24.3,0,0,1-3.21,4.06,12.18,12.18,0,0,1-2.13,1.51,11.8,11.8,0,0,0,.3,1.26,6.34,6.34,0,0,0,.61,1.35A53.4,53.4,0,0,1,37,138.13a3.07,3.07,0,0,0,1.22,1.79c.65-.25.43-.82.43-1.25a20.75,20.75,0,0,1,.8-7.09,3.82,3.82,0,0,0,.14-1.47c-.17-3.18,1.19-5.94,2.39-8.74a5.13,5.13,0,0,1,1.16-1.58c1.2-1.13,1.71-2.81,3.07-3.82.19-.13.14-.61.19-.93s.1-.78.17-1.35c.43.19.8.23.95.44A6.34,6.34,0,0,1,49,118a4.14,4.14,0,0,0,.27,1.69,11.5,11.5,0,0,1,.74,4.85c0,3,0,5.95.1,8.92a5.38,5.38,0,0,1-.84,3,8.93,8.93,0,0,0-1.21,2.67,12,12,0,0,1-3.1,5.55,5.45,5.45,0,0,0-1.73,2.62,47.54,47.54,0,0,0,8,10.78,4.39,4.39,0,0,0,.22-.93c0-5.63,1.46-10.93,3.38-16.14A11.86,11.86,0,0,1,56,138.88c1-1.54,2-3,2.94-4.57.14-.21.23-.54.41-.6,1-.37,1.11-1.3,1.43-2.12a.94.94,0,0,1,.75-.46,1,1,0,0,1,.69.56,6.45,6.45,0,0,1,.22,1.7,23,23,0,0,0,1,6.33,9.59,9.59,0,0,1,.35,2.44c.06,2.89.2,5.78,0,8.66a49,49,0,0,1-1,6.09c-.07.4-.36.78-.36,1.18,0,2.14-1,3.95-1.88,5.83a35.23,35.23,0,0,0-1.25,3.86c2,2.73,7.6,7.63,10.06,8.81.36-.5,0-1-.11-1.39a10.88,10.88,0,0,1-.61-4.38c.09-4.21.15-8.42.22-12.63,0-1.31,0-2.58,1-3.69A8.77,8.77,0,0,0,71,152.05a7.19,7.19,0,0,1,.53-.91l2.08,1.18c-.14,1.83.65,3.42,1.46,5.06A28.77,28.77,0,0,1,76.72,162c.65,2.14,1.16,4.31,1.76,6.45a15.19,15.19,0,0,1,.74,4.87,3.62,3.62,0,0,0,.15,1.47c1.13,3,.77,6,.58,9a3.3,3.3,0,0,0,.08.69c2.25,1.56,4.42,3.47,7,4.72a47.19,47.19,0,0,1,7.69,4.48,14.94,14.94,0,0,0,3.54,1.74,38.56,38.56,0,0,1,4.76,2.05,43,43,0,0,0,10.82,4.16,13.61,13.61,0,0,1,1.89.54c.24.1.38.43.53.6-.33.63-.77.54-1.16.53a28.21,28.21,0,0,1-10.78-2.48,60.59,60.59,0,0,0-8.06-3.14,10,10,0,0,1-3.06-1.54,25,25,0,0,0-7.51-3.71,12.7,12.7,0,0,1-3.94-2c-2.26-1.65-4.57-3.25-6.93-4.91a5,5,0,0,1-1.2.79c-.34.1-.78-.15-1.17-.14a3.66,3.66,0,0,0-1.18.25c-1,.37-2,.77-3,1.2a13.37,13.37,0,0,1-5.51,1.21,46.31,46.31,0,0,1-7.89-.63,19,19,0,0,0-3.2-.27,13,13,0,0,1-8.15-2.38,2.26,2.26,0,0,0-.86-.49c-2.44-.46-3.71-2.65-5.69-3.8a1.51,1.51,0,0,1-.67-1.87,45.65,45.65,0,0,1,5-.76c4.54,0,9.08,0,13.62-.1a9.52,9.52,0,0,1,3.39.58,28.64,28.64,0,0,0,6.46,1.65A9,9,0,0,1,68.56,182a1,1,0,0,0,1-.1c-1.63-1.22-3.29-2.4-4.89-3.67s-3.22-2.59-4.72-4-2.87-3-4.34-4.5a14.61,14.61,0,0,1-5.48.54c-3.63,0-7.26,0-10.9,0a7,7,0,0,1-3.36-.63,4.63,4.63,0,0,0-1.65-.43,16.81,16.81,0,0,1-6.81-2.06Q25.49,166,23.49,165c-2.62-1.34-4.57-3.5-6.66-5.48A.88.88,0,0,1,17,158a13.69,13.69,0,0,0,2.28.61,18.74,18.74,0,0,0,2.47-.12c2.39-.08,4.79-.16,7.18-.22a6.82,6.82,0,0,1,2,.15,17.23,17.23,0,0,0,4.9.54,4.48,4.48,0,0,1,1.46.19,20.91,20.91,0,0,0,4.37.74,16.42,16.42,0,0,1,4,1.26,11.88,11.88,0,0,0,3.6,1.08l-8.4-11.29c-1.74.13-3.45.29-5.17.38a15.79,15.79,0,0,1-7.88-1.74c-1.56-.75-3.19-1.33-4.75-2.07a15.05,15.05,0,0,1-2-1.37c-.68-.47-1.33-1-2-1.43-2-1.36-4-2.69-5.93-4.05a5.06,5.06,0,0,1-1.29-1.14q-2-2.84-3.87-5.75c-.51-.8-.28-1.33.63-1.76a9.9,9.9,0,0,1,7.21-.54c1.82.52,3.6,1.21,5.38,1.86a10.81,10.81,0,0,1,1.79.84,29.07,29.07,0,0,0,5.3,2.63,12,12,0,0,1,2.69,1.73A7.51,7.51,0,0,0,34.18,140.24ZM22.23,68.3l.47.12a18.91,18.91,0,0,0,.52-1.82c1.14-5.83,2.35-11.65,3.32-17.51a25.68,25.68,0,0,0,0-8.39c-.31-1.87-.73-3.72-1.12-5.58a10.5,10.5,0,0,0-.37-1.22A5.91,5.91,0,0,0,22,37.73c-.86,2.75-1.63,5.54-2.27,8.35-.89,3.86-1.64,7.75-2.4,11.64a16.1,16.1,0,0,0-.25,3c0,2.31.15,4.63,0,6.93a12.75,12.75,0,0,0,1.67,6.88c.19.34.3.79.93.68a9.48,9.48,0,0,1,.58-4.59,4.14,4.14,0,0,0,.15-1.47c.08-1.15.15-2.3.25-3.45.21-2.63.59-5.26.63-7.89a28.8,28.8,0,0,1,2-9.63c.08-.23.41-.37,1-.85-.15,1.15-.23,1.87-.33,2.59a61.88,61.88,0,0,0-.84,6.61c-.07,2.9-.34,5.77-.65,8.64C22.36,66.18,22.31,67.24,22.23,68.3Zm25.13-1.66c-1.2-.24-2.39-.43-3.38.6a6.19,6.19,0,0,1-2.32,1.36,7.89,7.89,0,0,0-1.93,1.06,66.38,66.38,0,0,0-8,7.33A13.11,13.11,0,0,0,28.9,81c-.73,1.83-1.54,3.63-2.3,5.45-.15.36-.63.69-.1,1.27,1.25-3.61,4.27-5.89,6.22-8.93a2.91,2.91,0,0,1,.74-.65c1.38-1.05,2.75-2.1,4.14-3.13.23-.18.5-.49.84-.14,0,.16.09.38,0,.45a21.25,21.25,0,0,1-2.88,3,11,11,0,0,0-3,3.17,7.33,7.33,0,0,1-1.11,1.32,17.34,17.34,0,0,0-3.11,4.44c-.95,1.83-1.85,3.69-2.77,5.53-.21.41-.39.83-.83,1.77,1.55-1,2.6-1.78,3.7-2.46a20.87,20.87,0,0,0,5.72-5.4,33.25,33.25,0,0,1,2.74-3.18A9.09,9.09,0,0,0,38.71,81,8.76,8.76,0,0,1,41,77.78a9.29,9.29,0,0,0,2-2.76c1.4-2.61,2.87-5.18,4.31-7.78C47.42,67.12,47.36,66.92,47.36,66.64Zm-44,.3-.44.13c0,.73,0,1.46,0,2.19a3.45,3.45,0,0,0,.28,1.19,19.55,19.55,0,0,1,1.69,7.42,6,6,0,0,0,.42,1.65c.3.86.63,1.7,1,2.53,1.26,2.87,2.54,5.74,5,7.87a5.7,5.7,0,0,1,1.26,1.51,4.24,4.24,0,0,0,1.76,1.65,17.11,17.11,0,0,1,4.32,3.29,3,3,0,0,0,.77.6.48.48,0,0,0,.43-.06.69.69,0,0,0,.2-.42A.79.79,0,0,0,20,96a37.55,37.55,0,0,0-3.45-5.4c-3-3.4-5.21-7.42-8.14-10.88a3.23,3.23,0,0,1-.55-3c.13.09.34.15.38.27a7.89,7.89,0,0,0,2.24,3.2,8.9,8.9,0,0,1,1.21,1.56C12.41,82.81,13.1,84,13.9,85a24.1,24.1,0,0,0,3.72,4.27,2.81,2.81,0,0,0-.51-2.44c-2.29-4-4.61-8-6.89-12A7.16,7.16,0,0,0,8,72.25a9.32,9.32,0,0,1-3.56-4A6.8,6.8,0,0,0,3.38,66.94Zm18.27,71.74c.6,0,1-.05,1.14.08a24.7,24.7,0,0,1,2.09,1.74A10.49,10.49,0,0,0,28,142.45c2.19.94,4.37,1.93,6.57,2.86.48.21,1,.64,1.59.23-.07-.17-.08-.38-.19-.46-1.17-.9-2.33-1.81-3.54-2.66s-2.58-1.78-3.93-2.55-3.05-1.3-4.39-2.21c-2.84-1.92-6.08-2.92-9.17-4.27-1.21-.53-1.38-.47-2.95,0a1.58,1.58,0,0,0,.14.45c1.18,1.47,2.65,2.7,3.56,4.4a4.53,4.53,0,0,0,1.44,1.34c1.54,1.09,3.11,2.13,4.66,3.2a2.87,2.87,0,0,1,.71.68,4.3,4.3,0,0,0,1.95,1.47c1.86.85,3.6,2,5.75,2.06,1.45,1,3.08.72,5,.74-.67-.4-1.07-.69-1.51-.89-2-.92-4-1.92-6.1-2.69C24.92,143.16,23.4,141.09,21.65,138.68Zm2.06-17.9-1.06-1-9.95-10a5.55,5.55,0,0,1-1.6-2.46,4.33,4.33,0,0,1,0-1l7,6.88c1.64,1.63,3.26,3.27,4.9,4.89.25.25.54.69,1.08.14-.54-.71-1.07-1.43-1.63-2.14-.25-.32-.58-.58-.86-.88A22.62,22.62,0,0,1,17.78,111c-1-1.8-3-2.55-4.42-3.89C11,104.92,8.42,103,5.92,101c0,0-.16,0-.3,0-.06.21-.2.44-.15.63A23.92,23.92,0,0,0,7,106.83c1,1.77,2,3.56,3.12,5.24a12,12,0,0,0,4,3.65c2.48,1.45,5,2.92,7.47,4.35A14.08,14.08,0,0,0,23.71,120.78Zm25.88,44.37a22.92,22.92,0,0,1-5.17-1.8,8.89,8.89,0,0,0-4.52-1.09,2.62,2.62,0,0,1-1.22-.12,13.34,13.34,0,0,0-5.34-.81,3.57,3.57,0,0,1-1.22-.18c-2.47-.89-5-.78-7.59-.84-.31,0-.68,0-.79.59A12.62,12.62,0,0,0,26.33,163c2.09.93,4.06,2.23,6.4,2.52a7.25,7.25,0,0,1,1.94.37,12.31,12.31,0,0,0,5.34.77c1.57-.05,3.13,0,4.7-.06a4.86,4.86,0,0,0,1.09-.42c-2-.25-3.41-.38-4.82-.63s-2.84-.6-4.29-.92c.14-.23.18-.45.3-.49a4.93,4.93,0,0,1,3.62-.06,8.07,8.07,0,0,0,3.6.65,5.2,5.2,0,0,1,2.38.55A3.19,3.19,0,0,0,49.59,165.15ZM30.27,118.79c.47-.15.93-.17,1.15-.4.74-.77,1.38-1.62,2.07-2.43a5.75,5.75,0,0,1,1.29-1.43,4.74,4.74,0,0,0,1.72-2c1.43-2.58,2.86-5.17,4.4-7.69a7.37,7.37,0,0,0,1-2.22,6.47,6.47,0,0,1,1.33-2.87,2.89,2.89,0,0,0,.59-3.08,10.72,10.72,0,0,0-1.45,1c-2,1.87-3.93,3.75-5.85,5.68a3.73,3.73,0,0,0-.81,1.49,9.38,9.38,0,0,1-1.68,3c-.55.72-1.12,1.43-1.6,2.2a2.46,2.46,0,0,0-.46,2.41,3.07,3.07,0,0,0,.71-.67c.55-1,1-2,1.57-3,.19-.35.34-.76,1-.56a4.6,4.6,0,0,1-.81,3.21c-1.19,1.77-1.93,3.83-3.56,5.31A2.08,2.08,0,0,0,30.27,118.79Zm29.41,19.37a5.66,5.66,0,0,0-.81.73,11.06,11.06,0,0,0-1.77,3.51,57.9,57.9,0,0,0-2.49,11.33,53.61,53.61,0,0,0,0,5.67A1.39,1.39,0,0,0,55.77,161a10.25,10.25,0,0,0,1.2-5.52,3,3,0,0,1,.11-1c.43-1.93.89-3.85,1.34-5.78a.5.5,0,0,1,.71-.43c.89,2.84.89,2.88.33,5.51-.11.48-.22,1-.29,1.45,0,.29-.18.65.49.88a24,24,0,0,0,1.12-5.73c0-2.8,0-5.61.09-8.41A7.4,7.4,0,0,0,59.68,138.16ZM46.14,135c1-.46.94-1.24,1-2,.06-3,0-5.94.18-8.91a13.94,13.94,0,0,0-1-5.5c-1,2-2,3.51-2.7,5.27-1.57,3.91-1.39,8.08-2,12.13a34,34,0,0,0,0,5.44,12.51,12.51,0,0,0,.15,1.33,3.4,3.4,0,0,0,.94-2.15A7.65,7.65,0,0,1,43,138.7,20.55,20.55,0,0,0,44.37,132c0-1.15.17-2.3.3-3.45,0-.38.16-.8.89-.72C46.44,130,46,132.42,46.14,135ZM41.89,180.9c0,.14-.07.27-.1.42.35.18.69.4,1.05.55,1.76.7,3.51,1.43,5.29,2.07a17.83,17.83,0,0,0,6,1.4c2.63,0,5.27.06,7.9,0a9.1,9.1,0,0,0,2.4-.51c.3-.09.85-.1.69-.8-4-.12-8.11.21-12.14-.64.22-.81.76-.75,1.23-.78s1,0,1.49-.05a16.37,16.37,0,0,0,1.72-.1c.43-.07,1,.19,1.28-.49A7,7,0,0,0,55,181c-4,0-8.07-.11-12.11-.16C42.53,180.83,42.21,180.88,41.89,180.9Zm31.16-22.18a2.69,2.69,0,0,0-.85,2q0,5.94,0,11.88a2.85,2.85,0,0,0,.22,1.2c.2.41.37.94,1.16.92.05-.44.12-.89.14-1.35s0-1,0-1.48,0-1.16.09-1.73-.14-1,.57-1.29a3.52,3.52,0,0,1,.35,2.11A30.93,30.93,0,0,0,76,180c.14.52,0,1.16.6,1.53.08,0,.18-.06.19-.09a12.54,12.54,0,0,0-.13-5.14,10.43,10.43,0,0,1-.39-2.66,18,18,0,0,0-.54-4.4c-.49-2.09-1-4.18-1.46-6.27C73.91,161.69,73.53,160.44,73.05,158.72Zm-34.14-11.3c-.21-.14-.38-.27-.57-.38,0,0-.16.15-.15.17a4.13,4.13,0,0,0,.33.52C38.62,147.64,38.73,147.56,38.91,147.42Z"/><path class="cls-1" d="M411.5,138.53a12,12,0,0,1,2.69-1.73,29.73,29.73,0,0,0,5.3-2.63,10.81,10.81,0,0,1,1.79-.84c1.78-.65,3.56-1.34,5.37-1.86a9.92,9.92,0,0,1,7.22.54c.91.43,1.14,1,.63,1.76q-1.87,2.91-3.87,5.75a5.06,5.06,0,0,1-1.29,1.14c-2,1.36-4,2.69-5.93,4.05-.68.46-1.34,1-2,1.43a15.05,15.05,0,0,1-2,1.37c-1.56.74-3.2,1.32-4.75,2.07a15.79,15.79,0,0,1-7.88,1.74c-1.72-.09-3.43-.25-5.17-.38l-8.4,11.29a11.88,11.88,0,0,0,3.6-1.08,16.42,16.42,0,0,1,4-1.26,20.91,20.91,0,0,0,4.37-.74,4.48,4.48,0,0,1,1.46-.19,17.23,17.23,0,0,0,4.9-.54,6.8,6.8,0,0,1,2-.15c2.39.06,4.79.14,7.18.22a18.74,18.74,0,0,0,2.47.12,13.69,13.69,0,0,0,2.28-.61.88.88,0,0,1,.15,1.5c-2.09,2-4,4.14-6.67,5.48q-2,1-3.92,2.11a16.9,16.9,0,0,1-6.81,2.06,4.68,4.68,0,0,0-1.66.43,6.94,6.94,0,0,1-3.35.63c-3.64,0-7.27,0-10.91,0a14.56,14.56,0,0,1-5.47-.54c-1.47,1.54-2.84,3.09-4.34,4.5s-3.11,2.72-4.72,4-3.26,2.45-4.89,3.67a1,1,0,0,0,1,.1,8.93,8.93,0,0,1,3.75-1.16,28.64,28.64,0,0,0,6.46-1.65,9.52,9.52,0,0,1,3.39-.58c4.54.06,9.08.08,13.62.1a45.65,45.65,0,0,1,5,.76,1.51,1.51,0,0,1-.67,1.87c-2,1.15-3.25,3.34-5.69,3.8a2.26,2.26,0,0,0-.86.49,13,13,0,0,1-8.15,2.38,19,19,0,0,0-3.2.27,46.31,46.31,0,0,1-7.89.63,13.37,13.37,0,0,1-5.51-1.21c-1-.43-2-.83-3-1.2a3.66,3.66,0,0,0-1.18-.25c-.39,0-.83.24-1.17.14a5,5,0,0,1-1.2-.79c-2.36,1.66-4.67,3.26-6.93,4.91a12.81,12.81,0,0,1-3.94,2,25,25,0,0,0-7.51,3.71,9.9,9.9,0,0,1-3.06,1.54,60.59,60.59,0,0,0-8.06,3.14,28.21,28.21,0,0,1-10.78,2.48c-.39,0-.83.1-1.16-.53.15-.17.29-.5.53-.6a13.22,13.22,0,0,1,1.89-.54,43,43,0,0,0,10.82-4.16,38.56,38.56,0,0,1,4.76-2.05,14.94,14.94,0,0,0,3.54-1.74,47.19,47.19,0,0,1,7.69-4.48c2.63-1.25,4.8-3.16,7.05-4.72a6.48,6.48,0,0,0,.09-.69c-.2-3-.57-6.09.57-9a3.81,3.81,0,0,0,.15-1.47,14.92,14.92,0,0,1,.74-4.87c.6-2.14,1.11-4.31,1.76-6.45a28.77,28.77,0,0,1,1.69-4.63c.81-1.64,1.6-3.23,1.46-5.06l2.08-1.18a7.19,7.19,0,0,1,.53.91,8.77,8.77,0,0,0,1.06,2.45c1,1.11,1,2.38,1,3.69.07,4.21.13,8.42.22,12.63a10.88,10.88,0,0,1-.61,4.38c-.16.41-.47.89-.12,1.39,2.47-1.18,8.11-6.08,10.07-8.81a33.3,33.3,0,0,0-1.26-3.86c-.84-1.88-1.83-3.69-1.87-5.83,0-.4-.29-.78-.36-1.18a49,49,0,0,1-1-6.09c-.16-2.88,0-5.77,0-8.66a9.59,9.59,0,0,1,.35-2.44,23,23,0,0,0,1-6.33,6.45,6.45,0,0,1,.22-1.7,1,1,0,0,1,.69-.56.94.94,0,0,1,.75.46c.32.82.41,1.75,1.43,2.12.18.06.27.39.4.6,1,1.52,2,3,2.95,4.57a11.86,11.86,0,0,1,1.17,2.16c1.92,5.21,3.41,10.51,3.38,16.14a4.39,4.39,0,0,0,.22.93,47.54,47.54,0,0,0,8-10.78,5.52,5.52,0,0,0-1.73-2.62,12,12,0,0,1-3.1-5.55,9.19,9.19,0,0,0-1.21-2.67,5.38,5.38,0,0,1-.84-3c.07-3,.09-5.94.1-8.92a11.5,11.5,0,0,1,.74-4.85,4.14,4.14,0,0,0,.27-1.69,6.28,6.28,0,0,1,1.45-3.86c.15-.21.52-.25.95-.44.07.57.11,1,.17,1.35s0,.8.19.93c1.36,1,1.86,2.69,3.07,3.82a4.94,4.94,0,0,1,1.15,1.58c1.21,2.8,2.57,5.56,2.4,8.74a3.82,3.82,0,0,0,.14,1.47,20.75,20.75,0,0,1,.8,7.09c0,.43-.22,1,.43,1.25a3.07,3.07,0,0,0,1.22-1.79,52.92,52.92,0,0,1,5.41-11.37,6.34,6.34,0,0,0,.61-1.35,9.62,9.62,0,0,0,.29-1.26,12.07,12.07,0,0,1-2.12-1.51,24.88,24.88,0,0,1-3.22-4.06,19.63,19.63,0,0,0-3.5-4.76,7.74,7.74,0,0,1-2.12-3.3,20.39,20.39,0,0,0-1.28-2.67,16,16,0,0,1-.88-1.76c-.74-2-1.43-4-2.11-6.07a7.63,7.63,0,0,1-.41-1.68,25.53,25.53,0,0,0-1.27-5,1.32,1.32,0,0,1,.72-1.82,27.72,27.72,0,0,1,7.44,5.27c2.12,2,4,4.13,6.08,6.18a22.08,22.08,0,0,1,3.76,5.79,8.6,8.6,0,0,1,.95,3.56,21.52,21.52,0,0,0,.64,3.08,13.89,13.89,0,0,0,.8-1.73q1.14-3.92,2.23-7.86c.37-1.34.95-2.64.62-4.1a1.31,1.31,0,0,1,.18-.95c.73-1.08.3-2-.16-3a5.42,5.42,0,0,1-3.36-1.32c-.68-.46-1.36-.94-2.07-1.36a23.13,23.13,0,0,1-7-6.53,20.14,20.14,0,0,0-2.26-2.62,10.47,10.47,0,0,1-2.42-3.4,6.78,6.78,0,0,0-1.82-2.63,10.07,10.07,0,0,1-2.52-3.62,70.82,70.82,0,0,0-3.29-6.65,3.69,3.69,0,0,1,.41-4.87c1.2,0,2.51-.12,3.82-.09a2.11,2.11,0,0,1,1.34.48,8.55,8.55,0,0,0,3.37,2,5.4,5.4,0,0,1,1.65,1.06c2.05,1.78,4.08,3.6,6.12,5.4a14.09,14.09,0,0,0,1.93,1.53A6.06,6.06,0,0,1,414,77.5c1,1.8,2,3.61,3.14,5.33a13.75,13.75,0,0,1,1.94,4.25,13.88,13.88,0,0,0,.59,1.51,17.13,17.13,0,0,0,.33-4.37c0-1.32.16-2.67-1.17-3.58-.23-.16-.32-.56-.44-.86a63.86,63.86,0,0,1-2.62-7.2,40.05,40.05,0,0,0-1.49-4.45,23.24,23.24,0,0,1-1.68-8.94c.07-4,.13-8.09.1-12.14,0-2.21-.4-4.43.52-6.57a3.46,3.46,0,0,0,.13-1,6.45,6.45,0,0,1,1-3.27,4.11,4.11,0,0,0,.43-1.89c.07-.74,0-1.49.05-2.23a2.09,2.09,0,0,1,1.29-1.94c.67-.34,1.15-.29,1.43.39a6.94,6.94,0,0,0,2.63,3.18,3.9,3.9,0,0,1,1.17,1.52,57.73,57.73,0,0,1,3.75,9.67c1.14,3.88,2.08,7.82,3.06,11.74a16.43,16.43,0,0,1,.51,3.41c.09,3.05.05,6.11.1,9.16A8.71,8.71,0,0,1,428,73.1c-1.33,2.81-2.21,5.9-5,7.73,0,.6.06,1.08.1,1.69a4.54,4.54,0,0,0,1.66-2A108.08,108.08,0,0,1,433.32,69a19.62,19.62,0,0,0,2.11-2.74,5.2,5.2,0,0,1,2.63-2.48,15,15,0,0,1,3.74-1.12c.11.53.2.92.26,1.32A45.92,45.92,0,0,1,442,74.61a17.91,17.91,0,0,1-2.19,7,38.53,38.53,0,0,0-2.34,5.16,8,8,0,0,1-1.94,3.11,17.73,17.73,0,0,0-3.72,4.28,3,3,0,0,1-1.27,1.12,14.19,14.19,0,0,0-3.66,2.92c-.51.54-1.06,1-1.58,1.57a3.18,3.18,0,0,1-2.15,1.08,8.3,8.3,0,0,0-1.75.47c-1.36,4.2-2.94,10.94-2.94,12.77a26.64,26.64,0,0,0,2.38-2.37,44.48,44.48,0,0,1,6.23-6.27c2.51-2.17,5.37-3.85,7.82-6.06a1.58,1.58,0,0,1,.88-.42c1-.07,1.19-1.06,1.8-1.46a7.19,7.19,0,0,0,1.74.14,11,11,0,0,0,2-.73,12.42,12.42,0,0,1-.66,4c-.9,2.57-1.83,5.13-2.53,7.75a21.73,21.73,0,0,1-4.26,8.3c-2.4,2.92-5.12,5.37-8.92,6.32a9.77,9.77,0,0,0-2.56.92,8.29,8.29,0,0,1-5.05.79,10.69,10.69,0,0,1-1.95-.49c-1.23,2.39-2.34,4.69-3.59,6.91a55.81,55.81,0,0,0-3.58,8.76A7.51,7.51,0,0,0,411.5,138.53Zm8.39-73.41c-.31-2.87-.58-5.74-.65-8.64a59.45,59.45,0,0,0-.85-6.61c-.09-.72-.17-1.44-.32-2.59.56.48.88.62,1,.85a28.8,28.8,0,0,1,2,9.63c0,2.63.42,5.26.63,7.89.1,1.15.17,2.3.25,3.45a3.92,3.92,0,0,0,.15,1.47,9.48,9.48,0,0,1,.58,4.59c.63.11.73-.34.93-.68a12.66,12.66,0,0,0,1.66-6.88c-.11-2.3.05-4.62,0-6.93a16.1,16.1,0,0,0-.25-3c-.76-3.89-1.52-7.78-2.4-11.64-.64-2.81-1.41-5.6-2.27-8.35a6,6,0,0,0-3.11-3.83c-.15.49-.29.85-.37,1.22-.38,1.86-.8,3.71-1.11,5.58a25.68,25.68,0,0,0,0,8.39c1,5.86,2.18,11.68,3.31,17.51.12.62.35,1.22.53,1.82l.46-.12C420.05,67.24,420,66.18,419.89,65.12ZM395,67.24c1.43,2.6,2.91,5.17,4.31,7.78a9.29,9.29,0,0,0,2.05,2.76A8.76,8.76,0,0,1,403.65,81a9.09,9.09,0,0,0,1.84,2.61,33.25,33.25,0,0,1,2.74,3.18,20.87,20.87,0,0,0,5.72,5.4c1.09.68,2.15,1.43,3.7,2.46-.44-.94-.62-1.36-.83-1.77-.92-1.84-1.83-3.7-2.77-5.53a17.34,17.34,0,0,0-3.11-4.44,6.94,6.94,0,0,1-1.11-1.32,11.1,11.1,0,0,0-3.05-3.17,21.89,21.89,0,0,1-2.89-3c-.07-.07,0-.29,0-.45.34-.35.61,0,.84.14,1.39,1,2.76,2.08,4.13,3.13a2.79,2.79,0,0,1,.75.65c1.95,3,5,5.32,6.22,8.93.53-.58.05-.91-.1-1.27-.76-1.82-1.57-3.62-2.3-5.45a13.11,13.11,0,0,0-2.8-4.05,66.38,66.38,0,0,0-8-7.33,7.89,7.89,0,0,0-1.93-1.06,6.3,6.3,0,0,1-2.33-1.36c-1-1-2.17-.84-3.37-.6C395,66.92,394.94,67.12,395,67.24Zm43,1a9.32,9.32,0,0,1-3.56,4,7.16,7.16,0,0,0-2.26,2.57c-2.28,4-4.6,8-6.89,12a2.81,2.81,0,0,0-.51,2.44A24.51,24.51,0,0,0,428.46,85c.8-1,1.48-2.19,2.24-3.27a8.9,8.9,0,0,1,1.21-1.56,7.78,7.78,0,0,0,2.23-3.2c.05-.12.26-.18.39-.27a3.26,3.26,0,0,1-.55,3c-2.94,3.46-5.1,7.48-8.14,10.88a37.55,37.55,0,0,0-3.45,5.4.79.79,0,0,0-.09.48.69.69,0,0,0,.2.42.48.48,0,0,0,.43.06,3,3,0,0,0,.77-.6A17.24,17.24,0,0,1,428,93.08a4.2,4.2,0,0,0,1.77-1.65A5.52,5.52,0,0,1,431,89.92c2.45-2.13,3.73-5,5-7.87.36-.83.69-1.67,1-2.53a6,6,0,0,0,.42-1.65,19.37,19.37,0,0,1,1.69-7.42,3.45,3.45,0,0,0,.28-1.19c0-.73,0-1.46,0-2.19l-.44-.13A6.8,6.8,0,0,0,438,68.23Zm-23.17,75.91c-2.08.77-4.08,1.77-6.11,2.69-.43.2-.83.49-1.5.89,1.89,0,3.52.29,5-.74,2.15,0,3.9-1.21,5.76-2.06a4.3,4.3,0,0,0,2-1.47,2.71,2.71,0,0,1,.71-.68c1.55-1.07,3.12-2.11,4.66-3.2a4.53,4.53,0,0,0,1.44-1.34c.91-1.7,2.38-2.93,3.56-4.4a1.58,1.58,0,0,0,.14-.45c-1.57-.46-1.74-.52-2.95,0-3.09,1.35-6.33,2.35-9.17,4.27-1.35.91-3,1.41-4.39,2.21s-2.65,1.66-3.93,2.55-2.38,1.76-3.54,2.66c-.11.08-.13.29-.19.46.6.41,1.11,0,1.59-.23,2.2-.93,4.38-1.92,6.57-2.86a10.49,10.49,0,0,0,3.13-1.95,24.7,24.7,0,0,1,2.09-1.74c.19-.13.54,0,1.14-.08C419,141.09,417.44,143.16,414.79,144.14Zm6-24.07c2.51-1.43,5-2.9,7.47-4.35a12,12,0,0,0,4-3.65c1.13-1.68,2.15-3.47,3.12-5.24a24.49,24.49,0,0,0,1.56-5.18c.05-.19-.1-.42-.15-.63-.15,0-.26,0-.31,0-2.49,2-5.1,3.89-7.44,6.08-1.43,1.34-3.39,2.09-4.41,3.89a22.62,22.62,0,0,1-3.77,4.23c-.28.3-.61.56-.86.88-.56.71-1.09,1.43-1.63,2.14.54.55.82.11,1.08-.14,1.64-1.62,3.26-3.26,4.9-4.89l7-6.88a4.33,4.33,0,0,1,0,1,5.55,5.55,0,0,1-1.6,2.46q-5,5-10,10c-.2.21-.41.42-1.06,1A13.91,13.91,0,0,0,420.76,120.07Zm-25,45.17a5.27,5.27,0,0,1,2.39-.55,8.07,8.07,0,0,0,3.6-.65,4.93,4.93,0,0,1,3.62.06c.11,0,.16.26.3.49-1.45.32-2.86.67-4.29.92s-2.84.38-4.82.63a4.86,4.86,0,0,0,1.09.42c1.56,0,3.13,0,4.7.06a12.34,12.34,0,0,0,5.34-.77,7.25,7.25,0,0,1,1.94-.37c2.34-.29,4.31-1.59,6.4-2.52a12.62,12.62,0,0,0,2.59-2.06c-.12-.63-.48-.6-.79-.59-2.55.06-5.12-.05-7.59.84a3.57,3.57,0,0,1-1.22.18,13.34,13.34,0,0,0-5.34.81,2.62,2.62,0,0,1-1.22.12,8.89,8.89,0,0,0-4.52,1.09,23.09,23.09,0,0,1-5.17,1.8A3.17,3.17,0,0,0,395.76,165.24Zm15.73-48.62c-1.63-1.48-2.37-3.54-3.56-5.31a4.65,4.65,0,0,1-.82-3.21c.66-.2.81.21,1,.56.53,1,1,2,1.58,3a3.07,3.07,0,0,0,.71.67,2.44,2.44,0,0,0-.47-2.41c-.48-.77-1-1.48-1.59-2.2a9.6,9.6,0,0,1-1.69-3,3.5,3.5,0,0,0-.81-1.49c-1.91-1.93-3.87-3.81-5.84-5.68a12.15,12.15,0,0,0-1.45-1,2.89,2.89,0,0,0,.59,3.08,6.47,6.47,0,0,1,1.33,2.87,7.37,7.37,0,0,0,1,2.22c1.54,2.52,3,5.11,4.4,7.69a4.67,4.67,0,0,0,1.72,2,6,6,0,0,1,1.29,1.43c.69.81,1.33,1.66,2.07,2.43.22.23.68.25,1.15.4A2.1,2.1,0,0,0,411.49,116.62Zm-30,25.32c0,2.8,0,5.61.09,8.41a24,24,0,0,0,1.12,5.73c.66-.23.53-.59.49-.88-.07-.49-.19-1-.29-1.45-.56-2.63-.56-2.67.33-5.51a.5.5,0,0,1,.71.43c.45,1.93.91,3.85,1.34,5.78a2.73,2.73,0,0,1,.1,1,10.35,10.35,0,0,0,1.21,5.52,1.39,1.39,0,0,0,1.17-1.55,53.61,53.61,0,0,0,0-5.67,57.93,57.93,0,0,0-2.5-11.33,10.83,10.83,0,0,0-1.76-3.51,5.66,5.66,0,0,0-.81-.73A7.3,7.3,0,0,0,381.49,141.94Zm15.31-14.16c.73-.08.85.34.89.72.13,1.15.26,2.3.3,3.45a20.79,20.79,0,0,0,1.35,6.75,7.24,7.24,0,0,1,.42,1.91,3.35,3.35,0,0,0,.94,2.15c.07-.58.14-.95.15-1.33a34,34,0,0,0,0-5.44c-.62-4.05-.44-8.22-2-12.13-.71-1.76-1.73-3.31-2.7-5.27a13.94,13.94,0,0,0-1,5.5c.16,3,.12,5.94.18,8.91,0,.74-.07,1.52,1,2C396.38,132.42,395.91,130,396.8,127.78Zm2.71,53.06c-4,0-8.07.12-12.11.16a7,7,0,0,0-3.72,1c.28.68.85.42,1.28.49a16.37,16.37,0,0,0,1.72.1c.5,0,1,0,1.49.05s1,0,1.23.78c-4,.85-8.11.52-12.15.64-.15.7.4.71.7.8a9.12,9.12,0,0,0,2.39.51c2.64.05,5.28,0,7.91,0a17.83,17.83,0,0,0,6-1.4c1.78-.64,3.53-1.37,5.29-2.07.36-.15.7-.37,1.05-.55,0-.15-.07-.28-.1-.42C400.15,180.88,399.83,180.83,399.51,180.84ZM368.14,163c-.51,2.09-1,4.18-1.46,6.27a18,18,0,0,0-.55,4.4,10,10,0,0,1-.38,2.66,12.54,12.54,0,0,0-.13,5.14s.11.05.18.09c.56-.37.47-1,.6-1.53a30.61,30.61,0,0,0,1.22-9,3.44,3.44,0,0,1,.35-2.11c.71.33.52.86.56,1.29s.08,1.15.09,1.73,0,1,0,1.48.09.91.14,1.35c.79,0,1-.51,1.16-.92a2.85,2.85,0,0,0,.22-1.2q0-5.94,0-11.88a2.69,2.69,0,0,0-.85-2C368.83,160.44,368.45,161.69,368.14,163Zm35.7-15.22a4.13,4.13,0,0,0,.33-.52S404,147,404,147c-.19.11-.36.24-.57.38C403.63,147.56,403.74,147.64,403.84,147.73Z"/><path class="cls-2" d="M194.14,245.58c.62.07,1.18.14,1.75.19,3.24.25,3.42.2,5.47-2.34a30.15,30.15,0,0,0,1.79-2.66c.85-1.32,1.64-2.68,2.51-4a22.24,22.24,0,0,0,3.48-7.77c-1.45-.79-2.92-1.52-4.32-2.36a3.17,3.17,0,0,1-.34-5,6.29,6.29,0,0,0,1.05-1,2.86,2.86,0,0,1,2.76-1.28c.82.07,1.66-.06,2.48,0,1.76.13,2.54,1,2.5,2.43s.07,2.62.12,4.12a29.18,29.18,0,0,0,3.06-.53q2.37-.68,4.67-1.55a4.17,4.17,0,0,0,1.39-1c1.31-1.36,2.57-2.78,3.85-4.17a24,24,0,0,1,1.71-1.78,1.85,1.85,0,0,1,3,.19,2,2,0,0,0,1.42.82c.14-.07.35-.09.44-.21a5.14,5.14,0,0,1,4.62-1.76,14.82,14.82,0,0,1,5.06.89c1.91.79,3.27,1.87,3.36,4.09a3.66,3.66,0,0,0,.14.72.83.83,0,0,0,.15.21,4,4,0,0,0,2.55-.7c.72-.36,1.33-.95,2.28-.67.25.08.7-.34,1-.61,1.24-1.21,2.45-2.46,3.67-3.68a13.12,13.12,0,0,1,1.78-1.72,11.21,11.21,0,0,0,4.34-6.69,13.84,13.84,0,0,1,.57-1.64,82.1,82.1,0,0,0,4-12,13.14,13.14,0,0,1,1.31-2.92c.59-1.07,1.41-2,2-3.12.78-1.62,2.45-2.44,4-3.12,1.86-.81,3.63.48,3.8,2.54.08.91.05,1.82.11,2.73a5,5,0,0,1-1.12,4.15,3.24,3.24,0,0,0-.67,1.32,8.67,8.67,0,0,1-2.42,4.24,1.58,1.58,0,0,0-.46.85,6.85,6.85,0,0,1-2.61,3.82,6.28,6.28,0,0,0-2.27,4.22,13.49,13.49,0,0,1-1,3.05,58.09,58.09,0,0,0-2,6.18c1.55.64,3.2-.34,4.6.57,1.22.79,2.83.92,3.7,2.46,1.34-1,2.54-1.83,3.69-2.73a108.82,108.82,0,0,0,10.18-9,10.34,10.34,0,0,1,2.62-2.25l1.22,1a4,4,0,0,0,.54-.38c1.58-1.42,3.13-1,3.68,1a4,4,0,0,1-.43,3.33,44.2,44.2,0,0,1-7.7,8.68,6.37,6.37,0,0,1-1.69,1c-2.31,1.09-4.63,2.15-6.95,3.23a4.29,4.29,0,0,0-.61.43,7.39,7.39,0,0,0,.55,3.63q2.19,6,4.37,12.11a4.81,4.81,0,0,0,1.23,2.11,1.93,1.93,0,0,1,.6.77c.66,2.12,2.35,3.32,4,4.59a4.14,4.14,0,0,0,3,1q1.23-.1,2.46-.27a3.91,3.91,0,0,0,3.26-2.69c.29-.77.51-1.56.77-2.35.1-.31.13-.72.35-.89a1.52,1.52,0,0,1,1.07-.31.89.89,0,0,1,.53.69,33.45,33.45,0,0,1-1,3.56c-.31.89-1.13,1.65-.6,2.74.05.12,0,.32-.07.48-.39,1.51-2.89,3.8-4.46,3.9a18,18,0,0,0-3.12.64,11.36,11.36,0,0,1-6.32-.27,30.41,30.41,0,0,1-8-4.38,4,4,0,0,1-1.58-2.42c-.4-1.6-1-3.15-1.41-4.74a9,9,0,0,1-.29-2.19,30.61,30.61,0,0,0-.84-6.61c-.36-1.52-.61-3.05-.92-4.63-1.24,0-2.46,0-3.67,0a4,4,0,0,1-2.53-.78,25,25,0,0,0-3.19-1.59c-.42.92-.85,1.72-1.14,2.57a94,94,0,0,1-5.76,13.13A7.33,7.33,0,0,1,254,245a12.14,12.14,0,0,0-2.72,4.37c-.74,1.85-1.32,2-3.16.89-.14-.08-.29-.14-.53-.26-1.15.48-2.49.32-3.74.89A2.23,2.23,0,0,1,241,250a2.48,2.48,0,0,1,.19-3,2,2,0,0,1,.32-.38c2.85-2.81,4.73-6.34,7.15-9.48a8.56,8.56,0,0,0,.8-1.25c2.7-5.29,5.44-10.56,7.66-16.09a6,6,0,0,0,.16-.7c-.53-.22-.75.2-1,.43-1.17,1-2.34,2.1-3.44,3.21a5.86,5.86,0,0,1-4.41,1.9,2.63,2.63,0,0,0-.7.13,6.52,6.52,0,0,0-2.18,2.68,3.13,3.13,0,0,1-.47.86c-1.53,1.94-3.08,3.87-4.61,5.8a19.78,19.78,0,0,0-1.19,1.58,13.74,13.74,0,0,1-4.15,4.2,12.48,12.48,0,0,0-2.7,2.49,26.34,26.34,0,0,1-3.53,3c-.32.26-.79.35-1.07.63-1,1-2.16,1-3.43,1.08a9.28,9.28,0,0,1-5.51-1.73,6,6,0,0,1-3.13-5.89,20.68,20.68,0,0,1,2.93-9.82c.2-.35.41-.69.78-1.31a22.83,22.83,0,0,1-2.34.59,18.33,18.33,0,0,1-2.23.07h-2.06a4.49,4.49,0,0,0-1.33,2.8,19.81,19.81,0,0,1-3.26,7.16c-.76,1.06-1.3,2.3-2,3.39a52.86,52.86,0,0,1-4.31,6,11.75,11.75,0,0,1-11.21,3.76,6,6,0,0,1-4.87-4.43,5.71,5.71,0,0,1-.05-1.94c.07-1.23.29-2.46.29-3.69a13.48,13.48,0,0,1,.59-4.15c1-3.15,1.68-6.39,3.36-9.29a40.47,40.47,0,0,1,5.73-8c.63-.65,1.13-1.42,1.71-2.12a12.3,12.3,0,0,1,5.19-4.07,10.18,10.18,0,0,1,3.13-.42c1-.05,1.54.8,2.36,1.13.25.1.14.72-.13.84a2.24,2.24,0,0,1-.68.25,2.85,2.85,0,0,0-2.44,1.82,10.3,10.3,0,0,1-1,1.37,12.23,12.23,0,0,0-.89,1.47c-1,2.06-1.9,4.23-3.11,6.18a38.13,38.13,0,0,0-4.36,10.47c-.43,1.59-.84,3.19-1.29,4.78A5.83,5.83,0,0,0,194.14,245.58Zm37.11-25.51c-.58-.06-.64.35-.74.61a13.69,13.69,0,0,1-2.51,3.94,7.22,7.22,0,0,0-1.19,2.14,43.57,43.57,0,0,0-2.25,10.59,3.11,3.11,0,0,0-.05.74,2,2,0,0,0,1.91,1.86c1,.06,2,0,2.82,0,1.59-1.21,3.12-2.32,4.58-3.51a18,18,0,0,0,2.05-2.13c1-1.13,1.87-2.3,2.79-3.45a6.34,6.34,0,0,0,1.56-2.63c-1.71-.15-3.26-.05-4.81-.1a4.2,4.2,0,0,1-4.19-4.25c0-.66,0-1.32,0-2ZM243,223.44c.08-.72.18-1.45.25-2.19a1.66,1.66,0,0,0-1.06-1.78,9.11,9.11,0,0,0-6.33-.63,18.94,18.94,0,0,0-.37,2.17,5.6,5.6,0,0,0,.21,1.72,1.74,1.74,0,0,0,1.48,1.48C239.16,224.33,241.16,224.65,243,223.44Zm27.91-25.36a3.69,3.69,0,0,0,1.85-2.2c.45-1.15,1-2.25,1.53-3.37a2.8,2.8,0,0,0,.41-.88,21.53,21.53,0,0,0,0-4.88c-2.26.6-2.91,1.26-3.33,3.24a15.25,15.25,0,0,1-.61,2.63,4.82,4.82,0,0,0-.14,3.83A9.38,9.38,0,0,1,270.93,198.08Zm-60.66,22.3c-2.91-.16-2.91-.16-3.53,1.11.5.56.95,1.12,1.46,1.62.72.73,1.27,1.7,2.45,1.85C211.33,222.33,211.32,222.27,210.27,220.38Zm53.91,1.87c1.53,1.72,3.19,2.54,5.42,1.82-.08-1.64-1.65-1.9-2.63-2.57S265.09,221.45,264.18,222.25Z"/><path class="cls-2" d="M153.19,202.41a23,23,0,0,0-4.08,2.74,11.27,11.27,0,0,1-2.18,1.59,2.32,2.32,0,0,0-1.44,1.84c-.07.45-.44.82-.86.65a1.43,1.43,0,0,1-.65-.93,2.72,2.72,0,0,1,.56-2.55c.37-.42.6-1,1-1.43a20.73,20.73,0,0,1,2.23-2.61c1.6-1.42,3.3-2.73,5-4.05a1.44,1.44,0,0,0,.55-1.73c-.05-.16-.15-.3-.21-.45-.19-.55-.44-1.21.16-1.56a2,2,0,0,1,1.39.1,15,15,0,0,1,1.77,1l8.48-3.84a12.84,12.84,0,0,1,5.5-1.19c1.82,0,3.64,0,5.44-.16,2.24-.21,3.58.86,4.5,2.74a6.43,6.43,0,0,1,.71,2.85c0,1.73,0,3.47.08,5.2a6.75,6.75,0,0,1-.9,3.54,24.55,24.55,0,0,1-6.81,7.74c-1.1.86-2.14,1.79-3.24,2.66-.77.61-1.58,1.17-2.38,1.74-.44.3-.92.57-1.6,1a8.33,8.33,0,0,0,1.05.56c2.63.82,4.86,2.4,7.21,3.75a3.89,3.89,0,0,1,.9.82c1,1.1,2,2.23,2.94,3.33a13.79,13.79,0,0,1,3.4,5.67,24.72,24.72,0,0,1,1.1,4,12.76,12.76,0,0,1-4.95,12,25.32,25.32,0,0,1-5.29,3.17,29.93,29.93,0,0,1-11,2.77,11.92,11.92,0,0,0-4.07,1,3.26,3.26,0,0,1-2.35.16c-.71-.19-1.43-.39-2.15-.57l-8-2.06c-.37.3-.84.62-1.25,1a4.27,4.27,0,0,1-2.57,1.34,4.38,4.38,0,0,0-1.54.68c-1.07.62-2.13,1.25-3.17,1.92a13.61,13.61,0,0,0-2.2,1.55,4.2,4.2,0,0,1-3.11,1.27c-1.71,0-3.44.22-5-.81a5.31,5.31,0,0,0-2.16-.32c-1.62-.15-2.19-.64-2.53-2.18a15.14,15.14,0,0,1-.06-5.41,4.4,4.4,0,0,1,.86-1.73,14.67,14.67,0,0,0,1.4-1.7,4.71,4.71,0,0,1,2.79-2.28,14,14,0,0,0,2.22-1,4.92,4.92,0,0,1,2.8-.81c2.62,0,5.25,0,8,0,4.12-5.1,9.45-13.88,9.83-18.63a12.39,12.39,0,0,0-5.4,1.26,8.18,8.18,0,0,1-1.11.55,2.13,2.13,0,0,1-2.47-1.15,1.26,1.26,0,0,1,.19-1.39,6.68,6.68,0,0,1,2.84-2.32,15.89,15.89,0,0,1,2.84-.83,4.85,4.85,0,0,0,3.08-1.37,6,6,0,0,1,1.51-.94c.15-.61.26-1.26.47-1.87a27.58,27.58,0,0,0,1.71-11.16,9.43,9.43,0,0,1,.16-1.48C153.09,203.63,153.12,203.17,153.19,202.41Zm-2.94,43.38a6.1,6.1,0,0,0,3.82,1.45c2.12.14,4-.65,6.06-1a13.53,13.53,0,0,0,4.43-1.51,20.41,20.41,0,0,1,2.7-1.21,24.91,24.91,0,0,0,5.71-3.38c2.28-1.63,2.55-4.07,2.45-6.39-.1-2.12-1.42-4-2.68-5.75a1.85,1.85,0,0,0-.58-.45c-1.35-.78-2.72-1.52-4.07-2.3-.77-.45-1.51-1-2.28-1.43a2.58,2.58,0,0,0-1.09-.51,27.47,27.47,0,0,0-5.72.11c-.41,1.67-.77,3.27-1.22,4.85a10,10,0,0,1-1,2.52,22.34,22.34,0,0,0-2.51,6.41,20.23,20.23,0,0,1-3.31,7.39C150.75,245,150.55,245.31,150.25,245.79Zm8.56-31.7a10.72,10.72,0,0,0,5.18-2.27,22.45,22.45,0,0,1,3.53-2.25,9.34,9.34,0,0,0,3.84-3.76c1-1.75,2-3.65,1.76-5.84a6.61,6.61,0,0,1,.1-1.72,5.75,5.75,0,0,0-.85-4,7.8,7.8,0,0,0-5.51.79q-4,1.94-8,3.91a9,9,0,0,0-1.18.85,22.67,22.67,0,0,1,.62,2.24c.51,2.82,1.26,5.63.38,8.54A8.56,8.56,0,0,0,158.81,214.09Zm-32.4,33.83a14.29,14.29,0,0,0-.67,1.64,14,14,0,0,0-.56,2.63c-.09,1,.46,1.51,1.46,1.6a6.26,6.26,0,0,0,4.79-1.57c1.69-1.46,3.36-2.92,5-4.41a7.78,7.78,0,0,0,.83-1.05c-.11-.21-.13-.32-.19-.35-2.14-1.28-4.43-.76-6.7-.51-.15,0-.29.15-.43.22Z"/><path class="cls-2" d="M200.41,174.37a.51.51,0,0,1,.36.88,4.7,4.7,0,0,1-3.18,1.66c-.74,0-1.48-.06-2.42-.11-1.15,1.12-2.44,2.27-3.62,3.52a3.55,3.55,0,0,1-3.06,1.29c-.9-.09-1.82,0-2.71-.21a5.21,5.21,0,0,0-3.1,0,3.51,3.51,0,0,1-1.9-.24c-.39-.09-.73-.51-1.1-.52-1.68,0-3.18-.82-4.76-1.1a37.37,37.37,0,0,1-8.07-2.91c-2.12-.89-4.26-1.74-6.39-2.6l-.24-.06c-2.36-.69-4.56-1.77-7.05-2.18-2.25-.37-4.36-1.49-6.54-2.24-5.31-1.81-10.63-3.58-15.93-5.44a26.79,26.79,0,0,1-3.55-1.69A98.4,98.4,0,0,0,111,156.23a80.45,80.45,0,0,1-8.13-2.95c-1.74-.77-3.57-1.29-5.36-1.92a6.49,6.49,0,0,1-1.62-.58c-2.32-1.62-5.19-2.12-7.47-3.74a11.74,11.74,0,0,1-1.47.46,3,3,0,0,1-2.54-.62,9,9,0,0,0-2.23-1.53,4.53,4.53,0,0,1-2.63-3c-.13-.39-.32-.76-.48-1.14-1.56-3.71-1.57-3.71-1.22-7.65q.38-4.32.82-8.63a12.3,12.3,0,0,1,.51-2.41,35,35,0,0,0,1.65-8,9.53,9.53,0,0,1,1-4c1.24-2.26,3.18-3,5.47-3.25,1-.11,2-.1,3.11-.16-.32-1.16-1.34-1.24-1.94-1.77a10.39,10.39,0,0,1-1.73.43,2.94,2.94,0,0,1-2.52-.72A7.54,7.54,0,0,0,82,103.49a4,4,0,0,1-2.35-2.67c-.16-.46-.38-.91-.57-1.37-1.57-3.75-1.58-3.75-1.24-7.65.26-3,.53-5.92.83-8.87a9.07,9.07,0,0,1,.4-1.93,34.53,34.53,0,0,0,1.79-8.7A9,9,0,0,1,82,68.56c1.16-2.09,3-2.71,5.06-3,.82-.12,1.65-.06,2.47-.14a3.8,3.8,0,0,0,1-.46l-2-1.39a10.6,10.6,0,0,1-1.68.46,3,3,0,0,1-2.54-.67,11.21,11.21,0,0,0-2.66-1.77A3.61,3.61,0,0,1,79.8,59.4a9.36,9.36,0,0,0-.67-1.59c-1.67-2.63-1.52-5.49-1.22-8.39.15-1.48.3-3,.43-4.44a33.84,33.84,0,0,1,1.35-7.77,58.53,58.53,0,0,0,1.43-7.1,19.25,19.25,0,0,1,6.52-4.43c-.12.94-.21,1.66-.3,2.35-.51.62-1.48.06-1.94.93A4.27,4.27,0,0,0,84.72,31a3.33,3.33,0,0,1-1.18,2.59,3.85,3.85,0,0,0-1.33,3.08A4.07,4.07,0,0,1,82,38.16c-1.17,3.53-.77,7.19-.91,10.8a3.62,3.62,0,0,0,.19,1.22c.64,2.31,1.27,4.62,2,6.9.51,1.64.72,1.71,2.45,1.76a13.54,13.54,0,0,1,2.2.3,1.67,1.67,0,0,1,1.37,1.27,1.76,1.76,0,0,0,.56,1c1.63.94,3.05,2.25,5,2.68a19.68,19.68,0,0,1,3.45,1.34,5.38,5.38,0,0,0,3.63.37c-.51-2.32-1-4.56-1.49-6.82a12.67,12.67,0,0,1-.31-3.18c.25-3.62.61-7.23.94-10.85a3.07,3.07,0,0,1,.1-.74c.66-2,1.35-4.05,2-6.09.2-.62.32-1.26.47-1.89A3,3,0,0,1,105.3,34c.07.24.23.51.17.7-.82,2.33-1.22,4.76-1.81,7.15-1.18,4.8-.78,9.68-1.15,14.51a6.65,6.65,0,0,0,.16,1.72c.34,1.62.77,3.22,1.08,4.84.48,2.46,2,4.24,3.66,6a5.45,5.45,0,0,0,2.09,1.23c2.92,1.14,5.8,2.42,8.79,3.34,3.77,1.17,7.63,2.07,11.23,3.75,7.46,1.84,14.72,4.33,22,6.7.63.2,1.23.48,1.86.68a13.63,13.63,0,0,0,1.67.43,6.13,6.13,0,0,0,1.13,0c.48-.43.19-.81.11-1.19-.39-1.94-.93-3.87-1.13-5.83a33.67,33.67,0,0,1,0-5.68c.21-3.21.55-6.42.86-9.62a7.82,7.82,0,0,1,.35-1.94c.77-2.18,1.61-4.33,2.43-6.49a.72.72,0,0,1,1.06-.48,5,5,0,0,1,.05,1.11,22.11,22.11,0,0,1-.56,3.17,27.77,27.77,0,0,0-.9,7.59c-.06,2.89-.3,5.77-.39,8.66a23.17,23.17,0,0,0,2.11,11.06c.18.36.31.76.5,1.22,1.79.64,3.64,1.3,5.48,2s3.3,1.69,5.21,2.35a9.78,9.78,0,0,0,0-1.23c-.72-3.89-1.47-7.78-2.16-11.68a10.11,10.11,0,0,1-.13-2.46c.29-3.87.62-7.73.94-11.6a3.52,3.52,0,0,1,.15-1,18.14,18.14,0,0,0,1.41-5.48c0-.2.41-.42.67-.53.07,0,.41.32.43.52a8.23,8.23,0,0,1-.33,4.15,10.72,10.72,0,0,0-.69,3.87c-.13,3.39-.35,6.77-.36,10.15a31.81,31.81,0,0,0,.55,5.41c.6,3.32,1.32,6.63,2,9.94a8,8,0,0,0,.34,1A13,13,0,0,1,178,93.11a2.38,2.38,0,0,0,2.23,0c-1.39-2.42-1.43-5.15-2-7.78-.67-3.29.07-6.41.3-9.6.2-2.71.6-5.41.9-8.12.14-1.32.26-2.6,1.41-3.56.67-.55.65-1.48.74-2.31A7.42,7.42,0,0,1,183,57.56a5.69,5.69,0,0,0,.62-1.88,11.44,11.44,0,0,1,1.5-.1,15.85,15.85,0,0,0,4.17-.33,8.06,8.06,0,0,1,5.1.36,3,3,0,0,0,2.39.11,3.49,3.49,0,0,1,.73-.14,4.31,4.31,0,0,0,3.9-2.56c2.44-.45,4.79-.86,7.14-1.33,2.18-.43,4.35-.94,6.52-1.41,1.77-.39,3.56-.73,5.31-1.19s3.49-1,5.19-1.64c2.16-.8,4.28-1.74,6.44-2.56a31.69,31.69,0,0,0,5.77-2.8,19.21,19.21,0,0,1,2.9-1.37c1.45-.59,2.91-1.13,4.37-1.7a5.93,5.93,0,0,0,.18-2.88,2.73,2.73,0,0,1-1.72-2.64,18.42,18.42,0,0,1-.1-4.19,4.24,4.24,0,0,1,3.34-3.82c2.4-.48,4.45-1.73,6.62-2.72a6.62,6.62,0,0,0,.79-.48c0-.56-.4-.52-.66-.56a33.35,33.35,0,0,1-7.14-2,18.46,18.46,0,0,0-3.83-.93,26.73,26.73,0,0,1-4.59-.95,47.21,47.21,0,0,0-11.33-2.48,11.85,11.85,0,0,1-2.86-.75c-4.08-1.3-8.12-2.8-12.26-3.9-5.73-1.54-11.54-2.79-17.32-4.16-1-.23-1.91-.51-2.88-.74A4,4,0,0,1,188,3a15.28,15.28,0,0,1-2.25,0,10.26,10.26,0,0,0-5,.77c-2.09.73-4.28,1.18-6.42,1.76a23.53,23.53,0,0,0-2.35.7c-2,.78-4,1.6-6,2.42a9.64,9.64,0,0,1-4,1,4,4,0,0,0-2,.72,7.44,7.44,0,0,1-4,1.14,6.78,6.78,0,0,0-2.64.55,7,7,0,0,1-1.16.43,36.45,36.45,0,0,0-7.68,2.68c-2.06,1-4.39,1.16-6.52,2.12a21.55,21.55,0,0,1-5.32,1.06,18.64,18.64,0,0,0-5.66,1.71c-1.46.75-3.15,1-4.47,2.08a1,1,0,0,1-.46.15c-2.52.21-4.66,1.5-7,2.35-1.13.42-2.36.64-3.52,1a12.45,12.45,0,0,0-4.62,2.26c-.32.29-.91.29-1.35.47s-.8.42-1.32.7c1.3,1.36,3,1.34,4.39,1.88s3.13.14,4.58.89c-.11.51-.19.89-.27,1.28C122.58,35.7,132,39,141.55,41.9c1.58.47,3.17.92,4.79,1.23A26,26,0,0,1,152,44.88a87.43,87.43,0,0,0,13.5,4.81,8.73,8.73,0,0,1,2.5,1.05,16.38,16.38,0,0,0,5.05,1.92,51.57,51.57,0,0,1,5,1.47c.95.33,1,.55,1.13,1.82-.15,0-.32.16-.45.12-2.3-.64-4.58-1.35-6.89-1.93a15.24,15.24,0,0,1-4.13-1.59,11.54,11.54,0,0,0-2.92-1.3,95.76,95.76,0,0,1-12.86-4.44A32.46,32.46,0,0,0,145.77,45a66.75,66.75,0,0,1-6.94-1.81C131.9,41,125,38.76,118.08,36.57a36.53,36.53,0,0,0-4-1.16,31,31,0,0,1-7.21-2.53,7.22,7.22,0,0,1-1.45-.91,13.29,13.29,0,0,0-5.21-2.72,28.68,28.68,0,0,1-8.63-3.6,8.77,8.77,0,0,0-2.48-.59,2.82,2.82,0,0,1,2.3-1.41,4,4,0,0,1,1.24.06,24,24,0,0,0,7.62.12c.9-.09,1.82-.06,2.72-.13a18.4,18.4,0,0,0,5-1.18c2.47-.91,5-1.69,7.51-2.46a2.36,2.36,0,0,1,1.66,0,2.05,2.05,0,0,0,2.1,0,11.55,11.55,0,0,1,4.69-1.35,2.47,2.47,0,0,0,2.42-1.41c.21-.47,1.06-.75,1.67-.92,1.9-.52,3.83-1,5.76-1.4s3.9-.64,5.6-1.81a3,3,0,0,1,1.88-.47c2.48.21,4.72-.68,7-1.43,1.81-.6,3.54-1.39,5.49-1.34a2.53,2.53,0,0,0,1-.22,49.66,49.66,0,0,1,7.89-1.94,13.27,13.27,0,0,0,2.1-.7c1.06-.45,2.1-.95,3.16-1.42a50.6,50.6,0,0,1,9.26-3.4A16.7,16.7,0,0,0,181,.76a5.37,5.37,0,0,1,3.1-.59c.91.07,1.81.13,2.72.18.41,0,.9.16,1.21,0a2.22,2.22,0,0,1,2.9.5,2.61,2.61,0,0,0,1.29.7c2.6.39,4.73,1.86,7,3a27,27,0,0,0,5.51,2.18c2.8.65,5.56,1.5,8.37,2.16a30.45,30.45,0,0,1,6.26,2.29,20.37,20.37,0,0,0,4.39,1.64,14.48,14.48,0,0,1,2.09.75c1.23.48,1.23.48,2.28-.63.11-.11.24-.21.54-.48,1.06.16,2.29.27,3.49.53a44.65,44.65,0,0,1,4.54,1.21,36,36,0,0,0,7.46,1.69,14.67,14.67,0,0,1,3.09.81,32.4,32.4,0,0,0,7.64,2,11.44,11.44,0,0,1,3.26,1.11,18.2,18.2,0,0,0,4,1.34,8.07,8.07,0,0,0,5.06-.53,9.45,9.45,0,0,1,1.43-.42,13.83,13.83,0,0,0,9.64,1.05,4.63,4.63,0,0,1,1.7,0,17.47,17.47,0,0,0,10.87-1.29,5.57,5.57,0,0,1,1.65-.47c1.14-.17,2.29-.27,3.44-.39a9,9,0,0,1,3.41.25,12.52,12.52,0,0,0,7.32-.11,35.12,35.12,0,0,1,4.1-.87c1.94-.39,3.87-.8,5.82-1.16,2.11-.38,4.23-.68,6.33-1.11a17.13,17.13,0,0,1,6.62-.2,40.81,40.81,0,0,0,5.43.15c2.14.09,4.28.24,6.42.41a15.3,15.3,0,0,1,2,.45,10.3,10.3,0,0,1,.36,1.66c.11,2,0,4,.27,5.94s1,3.64,1.46,5.48c1.37,5.7,2.46,11.45,3.47,17.23a106.33,106.33,0,0,0,2.87,13,69.44,69.44,0,0,1,2.38,11.88c.11.89.32,1.78.47,2.67.07.4.27.93.1,1.2-.7,1.15-.22,2.27,0,3.36a121.83,121.83,0,0,1,2,13.71c.2,2,.82,4,1.17,6.06.21,1.22.28,2.46.4,3.69s.16,2.3.31,3.44q.74,5.4,1.55,10.78a20.38,20.38,0,0,0,.57,2.4c.71,2.61,1.34,5.26,2.2,7.84a32.49,32.49,0,0,1,1.81,7.66,9.88,9.88,0,0,0,.61,2.13c.62,1.86.5,3.55-1.17,4.93.22.51.49,1,.66,1.54a.79.79,0,0,1-.75,1,8.16,8.16,0,0,0-4.56.76,4.38,4.38,0,0,1-1.71.15c-1.32,0-2.64,0-4.17,0,.25.61.45,1.06.62,1.47-.78,1.08-2.36.42-3.06,1.61,1.18.29,2.28.54,3.37.82.43.11.83.41.72.85s-.49.58-.76.86a.52.52,0,0,1-.23.08,7,7,0,0,1-1.92.46c-2.41-.08-4.57,1.32-7,1a13.41,13.41,0,0,0-5.4.5,9.31,9.31,0,0,1-2.7.23c-3.05,0-6.11,0-9.16-.16a31.37,31.37,0,0,0-7.86.72,67.63,67.63,0,0,1-12.54,1.3,17,17,0,0,0-4.66.41,50.82,50.82,0,0,1-13.22,1.67l-2.23,0a8.5,8.5,0,0,0-4.92,1.38,6.44,6.44,0,0,1-1,.5c-1.84-.48-3.57-1-5.32-1.37a3,3,0,0,0-1.22.05c-.71.15-1.41.36-2.19.56a4.62,4.62,0,0,0-.9-.83,5.85,5.85,0,0,1-3.24-4,6.43,6.43,0,0,0-3.29.62c-1.63.59-3.27,1.12-4.91,1.69l-5.58,2c-1.48.53-2.93,1.16-4.43,1.55-5,1.29-9.7,3.25-14.51,5a19.53,19.53,0,0,0-3.49,1.86,16.06,16.06,0,0,1-5.22,2.17,15.79,15.79,0,0,0-4.84,1.84,10,10,0,0,1-4.43,1.41,16,16,0,0,0-3.86.81,50.76,50.76,0,0,1-10.2,1.88,14.44,14.44,0,0,1-2-.09c-.57,0-1.14,0-1.7.07,0-.16.06-.32.1-.48.31-1.26.48-1.45,1.51-1.58.41-.05.83,0,1.24-.06a45.84,45.84,0,0,0,10.15-2.12,24.35,24.35,0,0,1,4.31-1A9.34,9.34,0,0,0,221,168a19.85,19.85,0,0,1,6.2-2.39,11.64,11.64,0,0,0,3.63-1.53,23.6,23.6,0,0,1,4.12-2.25c5.06-1.76,10-3.81,15.22-5.15a22.66,22.66,0,0,0,3.51-1.19,41.38,41.38,0,0,1,7-2.39,66.77,66.77,0,0,0,6.93-2.51c-.47-.43-.7-.76-1-.89a1.23,1.23,0,0,0-1,.06,7.38,7.38,0,0,1-3.52,1,4.06,4.06,0,0,0-1.33.61c-.44.21-.87.61-1.32.62-1.17,0-2.26.6-3.37.62a12.37,12.37,0,0,0-4.48,1.26c-1.23.49-2.41,1.09-3.66,1.51a10.34,10.34,0,0,0-4.38,2.15,4,4,0,0,1-1.6.62c-.79.23-1.61.35-2.38.63a8,8,0,0,0-2.19,1.09,7.07,7.07,0,0,1-2.87,1.34,17.23,17.23,0,0,0-5.54,2,9,9,0,0,1-2.32.83c-1.51.42-3,.74-4.55,1.19a12.06,12.06,0,0,0-2.73,1.12,5.43,5.43,0,0,1-3.29.79,4.24,4.24,0,0,0-3.82,1.28,2.38,2.38,0,0,1-.86.47c-4.53,2.24-5.1,2.35-10.22,2-.9-.07-1.81-.13-2.71-.23s-1.92-.29-3.08-.46c-1.31,2-3.68,3.27-5,5.5a1.15,1.15,0,0,1-1.09.15,18.58,18.58,0,0,1-2.19-2.57c-1-1.45-.85-3.13-.72-4.78.31-3.95.59-7.9.92-11.84a2.42,2.42,0,0,0-.61-2,2.18,2.18,0,0,1-.82-1.73c.16-1.64.26-3.29.5-4.92a1.88,1.88,0,0,1,2.36-1.57c.16,0,.28.33.41.5L187.9,148v3.36c.41-.36.81-.57.8-.74a4.09,4.09,0,0,1,1.15-2.66c.57-.81,1-1,1.84-.47a2.17,2.17,0,0,0,2.08.23,4,4,0,0,1,1.43-.35,5.71,5.71,0,0,0,3.42-1.16,13,13,0,0,1,6.64-2c.42.72,0,1.07-.38,1.34a3.21,3.21,0,0,1-.92.3c-1.76.6-3.66.83-5.22,2a5,5,0,0,1-3,1,9.76,9.76,0,0,0-5.74,2.57,1.36,1.36,0,0,0-.42,1.1,33.41,33.41,0,0,0,1,3.78,16.19,16.19,0,0,1,1,7c-.26,2.29-.29,4.61-.4,6.92a4.81,4.81,0,0,0,.27,1,6.29,6.29,0,0,0,.84-.86A7.46,7.46,0,0,1,197,167c.47-.14,1-.27,1.42-.44,1.62-.59,3.22-1.24,4.86-1.8,1.17-.39,2.37-.68,3.56-1,1.43-.36,2.89-.63,4.31-1.05,1.74-.5,3.45-1.14,5.18-1.67a15.55,15.55,0,0,1,3.12-.74,22.7,22.7,0,0,0,7.14-1.93,82.77,82.77,0,0,1,12.69-4.12,29.55,29.55,0,0,0,7.79-3.12,8.22,8.22,0,0,1,2-.82c3.52-.89,7.05-1.72,10.57-2.6a27.42,27.42,0,0,0,5.69-2.57c-.29-1.43-.57-2.77-.87-4.24a87.56,87.56,0,0,0-10.34,3,21.18,21.18,0,0,1-3.3,1,31.11,31.11,0,0,0-8.15,2.86,20.86,20.86,0,0,1-3.37,1.53c-6.57,2.19-13.15,4.36-19.76,6.43a32,32,0,0,1-5.1.86c-.23,0-.51-.26-.78-.41.48-.8,1.18-.74,1.8-.87a37.36,37.36,0,0,0,4.1-.89q9.4-3.06,18.78-6.25a36.62,36.62,0,0,0,4-1.86c.15-.08.2-.38.29-.58a1.21,1.21,0,0,0,.45.07c.06,0,.1-.19.15-.29s-.17-.05-.22,0a3.08,3.08,0,0,0-.33.3,5.86,5.86,0,0,0-2.87.59,5.49,5.49,0,0,1-2.07.76c-1.68,0-2.92,1-4.33,1.64a3.38,3.38,0,0,1-1.33.53,7.91,7.91,0,0,0-3.32.87,5.85,5.85,0,0,1-1.87.57,32,32,0,0,0-10,2.4c-3.18,1.19-6.46,2-9.71,2.83-.16,0-.35.12-.48.06a1.11,1.11,0,0,1-.49-.42c-.05-.07.06-.35.16-.39a9.38,9.38,0,0,1,1.37-.51c2.29-.68,4.66-1.16,6.86-2a57.25,57.25,0,0,1,7.51-2.45,16.88,16.88,0,0,1,3.35-.82,9.24,9.24,0,0,0,3.78-1,3,3,0,0,1,1.15-.43c1.78.06,3.08-1,4.53-1.75a9.74,9.74,0,0,1,1.59-.58c.86-.25,1.74-.43,2.6-.68a42.36,42.36,0,0,1,4.71-1.42c1.55-.28,3-.88,4.48-1.22a10.46,10.46,0,0,0,4.26-1.86,2.8,2.8,0,0,1,.9-.39c3.09-.87,6.11-2,9.34-2.28,1.28-.11,1.45-.5.89-2.12l-4.1,1.68c-2.54,1-2.82,1.08-4.7.84a5.6,5.6,0,0,1,1-.76c2.36-1,4.74-1.91,7.11-2.86a3.39,3.39,0,0,0,.66-.33,1.25,1.25,0,0,0,.23-1.37.71.71,0,0,0-1.07-.23,8.27,8.27,0,0,1-2.54.85,19.62,19.62,0,0,0-4.13,1.59,19.14,19.14,0,0,1-4.81,1.9,13.83,13.83,0,0,0-4.12,1.6,9.38,9.38,0,0,1-2.29.85,33.21,33.21,0,0,0-3.32.93c-8.13,3.44-16.41,6.43-24.83,9.07-1.65.52-3.33.93-5,1.35a45.91,45.91,0,0,0-6.46,1.63c-2.79,1.16-5.73,1.47-8.6,2.19-.43.11-.81-.06-.84-.73a4.58,4.58,0,0,1,1-.55c1.35-.37,2.72-.68,4.08-1a10.24,10.24,0,0,0,4.6-2.1,5,5,0,0,0,1.22,0c2.65-.64,5.33-1.16,7.91-2,8.69-2.81,17.35-5.74,25.78-9.31,1.12-.47,2.35-.7,3.53-1.06a12.92,12.92,0,0,0,2.53-.91,15.48,15.48,0,0,1,4.14-1.56,12.71,12.71,0,0,0,4.16-1.52,16.34,16.34,0,0,1,5.5-2.1,13.4,13.4,0,0,0,3-1.09c.46-.22.66-.74-.1-1.26-1.37.5-2.86,1-4.29,1.58a24.87,24.87,0,0,1-4.69,1.5,43.67,43.67,0,0,0-10.8,3.42c-.44.22-.93.34-1.39.52-2.62,1-5.27,1.9-7.83,3a64.07,64.07,0,0,1-11.89,4.11c-.85.18-1.79.27-2.3,1.23-.17.3-.66.46-1,.61a89.48,89.48,0,0,1-9.27,3.42,13.9,13.9,0,0,0-4.13,1.44,37.06,37.06,0,0,0-4.1.77,14,14,0,0,1-6.36.16c-.25,0-.47-.32-.84-.59a3.6,3.6,0,0,1,2.53-.43,9.47,9.47,0,0,0,3.17-.33c2.76-.84,5.53-1.68,8.32-2.39,3.52-.9,6.79-2.56,10.33-3.37a1.18,1.18,0,0,0,.65-.32c.72-1,1.87-1,2.87-1.28a66.4,66.4,0,0,0,9.59-3.25c5.09-2.14,10.24-4.13,15.38-6.15a17.86,17.86,0,0,1,2.38-.66c3.61-.86,7.26-1.57,10.65-3.17a34.65,34.65,0,0,1,3.32-1.17c-.17-1.08-.31-2-.47-3.09a33.32,33.32,0,0,0-6.59,2.45c-1.13.66-2.48.92-3.64,1.53a45.58,45.58,0,0,1-8.33,3c-.39.12-.76.33-1.14.48-.77.3-1.53.61-2.31.88-12,4.16-24.31,7.33-36.63,10.41a6.59,6.59,0,0,1-1.47.13c-.1,0-.27-.19-.3-.32a.52.52,0,0,1,.12-.44,11.46,11.46,0,0,1,1.58-.66,13.64,13.64,0,0,0,2.7-1,6,6,0,0,0-2.59-.6c-.8-.14-1.59-.3-2.41-.46a7.68,7.68,0,0,1-8.25,1.91c-2.51-.83-4.88-.31-7.23.5a3,3,0,0,0-1.6,1.8,1.22,1.22,0,0,0,.14,1.56c.18.2,0,.76-.06,1.14-.31,1.61-1.12,3.08-1.2,4.77-.26,5.44-.57,10.88-.86,16.32a5.8,5.8,0,0,0,.31,2.67,5.67,5.67,0,0,1,.36,1.69c.14,1.7,1.09,3.08,1.77,4.57.38.83,1.1.95,1.78.27a1.92,1.92,0,0,1,2.19-.67c1.44.52,2.35-.28,3.15-1.31.24-.32.35-.75.6-1.07a2.46,2.46,0,0,1,3.46-.77c.29.14.56.32.86.48a14.46,14.46,0,0,1,1.92-.52C199.78,173.62,200.32,173.7,200.41,174.37ZM122.84,79a3.18,3.18,0,0,0-.18-.37s-.12,0-.18,0l.42.27a3.76,3.76,0,0,0,.25.31s.1,0,.15,0Zm.36,41.32-1.73,0c-.08-.31-.17-.63-.26-.94h-.59v0h.61c.09.31.17.61.29.91l1.68,0a3.39,3.39,0,0,0-.15.41s.06.1.09.15Zm-3.48-43.55-1.72,0c0-.23.15-.58,0-.68a6.87,6.87,0,0,0-1.73-1.38c-1.24-.57-2.44-1.42-3.94-1-.09-.14.11-.52-.31-.37l.36.31a.87.87,0,0,1,.24,1.31c.88.22,1.73.37,2.55.63s2.1.22,2.79,1.19l1.77,0,.17.12-.34,0A.53.53,0,0,0,119.72,76.73Zm130.34,33.68-1.51.55a1.77,1.77,0,0,0-1.56.91c.66.24,1.09-.18,1.53-.51.07,0,0-.28,0-.42a1.09,1.09,0,0,0,1.47-.45h.37a1.33,1.33,0,0,0-.05.19Zm-4.85-26.6,1.68-.31a10.81,10.81,0,0,0,5.17-2.2,1.48,1.48,0,0,0,.42,0c.07,0,.1-.16.14-.25s-.16,0-.21,0a2.76,2.76,0,0,0-.29.3c-1.68.58-3.36,1.15-5,1.75-.08,0-.09.28-.14.42-.61-.16-1.21-.24-1.66.35-.41,0-.9-.12-1,.5a10.76,10.76,0,0,0-5,1.66c-.87.48-2,.74-2.44,1.81a8.38,8.38,0,0,0-1.42.21c-2.42.82-4.81,1.7-7.23,2.52-1.79.61-3.62,1.09-5.39,1.77-2.91,1.12-5.79,2.35-8.67,3.55a4.9,4.9,0,0,0-.89.61,9.75,9.75,0,0,0,5-1.35,11.72,11.72,0,0,1,4.15-1.47,22.54,22.54,0,0,0,4.28-1.15c3.06-1.21,6.07-2.55,9.09-3.86.41-.18,1-.28,1.08-.88a2,2,0,0,0,.71-.08q2.67-1.22,5.33-2.5a14.82,14.82,0,0,0,1.39-.89C244.64,84.32,245.13,84.44,245.21,83.81Zm10.7-.08.09-.45-.12.44c.17.33.35.65.59,1.12C256.61,84.14,256.56,83.75,255.91,83.73Zm-9,70.11c.76-.31,1.72-.28,2.16-1.19l.54-.14c-.05,0-.13-.09-.15-.07a2.12,2.12,0,0,0-.34.27,2.33,2.33,0,0,0-1.94.57c-.13.13-.15.38-.23.56l-.39.06Zm.24-83.94a1.77,1.77,0,0,0,2.23-1.1l.33.13-.3-.21a11.12,11.12,0,0,0-1.07.46c-.4.23-.76.52-1.14.78-.07,0-.17,0-.22,0a2,2,0,0,0-.32.26.7.7,0,0,0,.19.1C247,70.2,247.06,70.05,247.16,69.9Zm3.94,53.52-3.24,1.08c-.4.13-.41.44-.35.76a2.06,2.06,0,0,0-2,0c-1.52.56-3,1.09-4.54,1.66a6.24,6.24,0,0,0-3.18,2,1.29,1.29,0,0,0-.48,0c-4.46,1.57-8.93,3.14-13.38,4.75-1.38.49-2.73,1.09-4.07,1.67-.17.07-.24.36-.36.54a17.41,17.41,0,0,0-6.47,2.39l-.37.17s0,.09,0,.13l.3-.37a8.87,8.87,0,0,0,6.5-2.37c.49,0,1-.08,1.47-.15a32.91,32.91,0,0,0,8.65-2.69c2-.94,4.09-1.71,6.1-2.64.76-.36,1.76-.47,2.07-1.5.08,0,.17.08.24.05,2.38-1,4.77-2,7.15-3.09.16-.07.21-.39.33-.58l2,0c1.08-.45,2.16-.88,3.23-1.36.15-.06.2-.36.3-.54a1.29,1.29,0,0,0,.42.1c.11,0,.21-.11.31-.17-.11-.05-.24-.15-.33-.12S251.22,123.33,251.1,123.42ZM269,139.88c0-.13-.05-.27-.08-.41l-.21.19.34.18c-.16,1,.46,1.82.86,2.67a.45.45,0,0,0,.39.2.94.94,0,0,0,.58-.33,2.62,2.62,0,0,0,.05-2.09,4.1,4.1,0,0,0,1.07-2.95,7.78,7.78,0,0,1,1.07-4.79l-1-.49c.07-.6-.22-1.38.44-1.8a25.29,25.29,0,0,1,4.4-2.74c1.07-.41,2-1,3.09-1.52a13,13,0,0,1,2.26-.93,15.32,15.32,0,0,1,2.94-.42,5.7,5.7,0,0,1,2.18.23,13.06,13.06,0,0,0,2.53.88c.17,0,.46.44.41.52-.13.25-.4.59-.63.6a22.44,22.44,0,0,1-2.46,0,11.2,11.2,0,0,0-5.55.82,40.69,40.69,0,0,1-4.68,2.2,2.64,2.64,0,0,0-2.05,2.5,3.56,3.56,0,0,1-.4,1.42,5.5,5.5,0,0,0-.52,3.13,13,13,0,0,1-.17,5.09,9.06,9.06,0,0,0-.09,2.22,1.7,1.7,0,0,0,1,1.6c.29.15.56.34.84.51-1.38-.09-2.11,1.07-3.22,1.58,0,.68,0,1.31,0,2,0,.13.17.26.34.51l1.85-.27a5,5,0,0,0,.93-3.85,1.82,1.82,0,0,1,1.77-.18c.49,2.5-1,4.5-1.32,6.81a8.9,8.9,0,0,0,.47.82c.85,1.21,1,1.23,2.4.5.14-.07.23-.22.38-.37a3,3,0,0,1,1.55-3.3,10.66,10.66,0,0,1,2.87-1.36c1.57-.43,3.06-1.11,4.74-.58.28.09.64-.11,1-.17.9-.15,1.79-.36,2.69-.42a2.63,2.63,0,0,0,2-.84,2.55,2.55,0,0,1,2.21-.88,5.82,5.82,0,0,0,1-.12c.15-3.54-1.29-6.57-2.2-9.71l-.68-2.39c-.94-3.24-1.91-6.48-2.82-9.74a6.76,6.76,0,0,1-.37-2.42c.15-1.43-.89-2.68-.49-4.12-1.44-2-1.21-4.56-1.84-6.83-.39-1.43-.58-2.92-1-4.35a13.67,13.67,0,0,1-.54-4.4,14.46,14.46,0,0,0-.47-3.92c-.64-2.81-1.28-5.63-1.88-8.45a9.14,9.14,0,0,1-.19-2.21,14.82,14.82,0,0,0-.57-4.4c-.35-1.36-.72-2.72-1-4.09a33.84,33.84,0,0,1-.81-5.62,38.55,38.55,0,0,0-.6-5.89c-.17-1-.36-2-.48-2.93-.28-2.29-.45-4.6-.79-6.88a95.63,95.63,0,0,0-4-16.59,13.56,13.56,0,0,1-.4-1.42c-.09-.44.23-.54.67-.56a8.83,8.83,0,0,1,.52,1.07c.62,2,1.27,3.93,1.8,5.92,1,3.9,2,7.83,3,11.76a8.53,8.53,0,0,1,.27,2.19,21.49,21.49,0,0,0,.77,5.86c.48,2,.79,4,1.11,6.08.25,1.54.35,3.11.64,4.64.32,1.71.74,3.39,1.21,5.06a19,19,0,0,1,.87,5.85,5.55,5.55,0,0,0,.17,1.46c.62,2.82,1.21,5.65,1.91,8.45a18.88,18.88,0,0,1,.52,4.16,21.55,21.55,0,0,0,.37,3.68c.55,2.92,1.22,5.82,1.81,8.73a10.7,10.7,0,0,1,.32,2.69c-.1,1.92.45,3.76.59,5.65a9.37,9.37,0,0,0,.53,1.89c.22.71.47,1.4.67,2.11,1.11,3.89,2.19,7.78,3.32,11.66.62,2.13,1.55,4.18,1.52,6.53.49,0,.89.11,1.29.12,1.9,0,3.8,0,5.7,0a3.55,3.55,0,0,1,1.86.47,4,4,0,0,0,4.39.11,11.78,11.78,0,0,1,5.23-1.29,12.68,12.68,0,0,0,2.47-.1,35.61,35.61,0,0,1,8.36-.81,3.21,3.21,0,0,0,1-.14,31,31,0,0,1,8.85-.74,22.76,22.76,0,0,0,3.67-.33,34.73,34.73,0,0,0,5.81-1.06,3,3,0,0,1,1,0,12.42,12.42,0,0,0,6.16-1.58,13.92,13.92,0,0,1,6.84-1.88c.14,0,.28-.13.57-.28-.1-.41-.2-.86-.3-1.32a9.79,9.79,0,0,1-.38-1.91,6.07,6.07,0,0,0-.56-2.63,2.42,2.42,0,0,1-.31-1.18c.11-1.77-.51-3.42-.72-5.13a52.11,52.11,0,0,0-1.12-6.57,3.64,3.64,0,0,1-.05-.74,65.13,65.13,0,0,0-1.48-11c-.16-.72-.18-1.47-.28-2.2-.17-1.23-.26-2.47-.54-3.67-.47-2.09-1.13-4.14-1.58-6.24s-.72-4.21-1.07-6.32c.59-1.75,0-3.43-.29-5.12-.2-1.14-.52-2.26-.71-3.39a9.85,9.85,0,0,1,.1-5.14,2.61,2.61,0,0,0-.76-3.15,3.82,3.82,0,0,1-1.4-2.76c-.21-1.55-.37-3.11-.59-4.67a22.55,22.55,0,0,0-.57-3.4,127.09,127.09,0,0,1-3.52-16.7,46.88,46.88,0,0,0-1.66-8,15.86,15.86,0,0,1-.68-4.13,21.94,21.94,0,0,0-.9-5.35,8.61,8.61,0,0,1-.36-3.42c.11-1.15.11-2.31.13-3.47,0-.47-.07-.93-.1-1.37a50.41,50.41,0,0,0-11.53.54c.07.27.13.54.2.81-3.17,0-6.22.08-9.27,0A31.86,31.86,0,0,0,310.83,21a14.15,14.15,0,0,1-2.9.55c-2.38.22-4.77.32-7.16.56s-4.76.18-7,1.12a2,2,0,0,1-.49.08,48,48,0,0,1-8.88.64,7.36,7.36,0,0,0-2.2.17c-2,.52-4,1.13-5.93,1.74a3.38,3.38,0,0,0-.85.54c-1.28-.3-2.39-.58-3.5-.81a9.3,9.3,0,0,1-2.65-.47,7.08,7.08,0,0,0-4.34-.42c-1.8.19-3.59.51-5.4.65a15,15,0,0,0-2.89.51,21.64,21.64,0,0,0-4.89,2.36A3.75,3.75,0,0,0,249.81,31a36.76,36.76,0,0,0,0,8.52l1.64-.47c.59-3.14.95-4,2.13-5a6.22,6.22,0,0,1,0,2.91,6.87,6.87,0,0,0,.21,3.17c4.47-1.75,8.8-3.54,13.54-4.43A2.15,2.15,0,0,0,269.68,37a15.5,15.5,0,0,1,2.72.14c.26,0,.5.28,1.05.61a6.66,6.66,0,0,1-1.37.48c-1.24,0-2.48.08-3.72,0a11.68,11.68,0,0,0-6.46,1.3,3.65,3.65,0,0,1-.93.32,8.14,8.14,0,0,0-5.56,4.49,6,6,0,0,1-.51,1.12,5.07,5.07,0,0,1-.94.8,4.94,4.94,0,0,1,.74,1.3,22.48,22.48,0,0,1,.09,2.47c.08,2.13.18,4.27.28,6.64.81-.36,1.42-.56,2-.88A23.71,23.71,0,0,1,263,53.42c1.28-.33,2.54-.73,3.79-1.14a14.15,14.15,0,0,1,3-1,37.23,37.23,0,0,1,5.17.11.82.82,0,0,1,.83.75c-1,.77-1,.82-1.87.92a80.53,80.53,0,0,0-11.59,2.49,39.47,39.47,0,0,0-7.14,2.87c-.06,1.2-.67,2.44.91,3.18.21.1,0,1,.23,1.12,1.35.56,1.07,1.74,1.09,2.74.1,3.3.11,6.61.16,9.91,0,1,.06,2,.1,2.9l1.31.4c.06.51.34,1.13.14,1.46-.78,1.32-.14,2.56,0,3.83.14,1.06.35,2.11.57,3.16,0,.18.24.32.57.74.05-1.14.07-2,.12-2.75s.1-1.48.21-2.21c0-.13.36-.26.57-.3s.31.17.32.29c.09.81.18,1.63.19,2.45,0,2.72.1,5.45.09,8.17s.86,5.37,1.27,8.05c.51,3.26,1.33,6.47,1.13,9.81a6.31,6.31,0,0,0,.29,1.7,21.33,21.33,0,0,1,.57,5.4,4.93,4.93,0,0,0,.82,3.1,4.25,4.25,0,0,0,.48-2.29c.39-2.86.72-5.73,1.14-8.59a20.77,20.77,0,0,1,.72-2.87c.06-.18.36-.28.7-.53a16.89,16.89,0,0,1,0,1.76c-.11.82-.35,1.62-.43,2.43-.16,1.72-.27,3.45-.38,5.18s-.21,3.46-.24,5.19a56.88,56.88,0,0,1-.35,8.15,3.59,3.59,0,0,0,.24,2.35c1.25-.14,1.27-.13,1.44-.7.26-.86.45-1.75.74-2.6.08-.22.44-.34.85-.62.31,2.24-.58,4.12-.46,6.1a42.77,42.77,0,0,0,.67,5.85ZM243.69,42.65c-1.53.57-3.08,1.11-4.59,1.74-.32.13-.52.55-.77.84a4,4,0,0,0-.93.16c-1.14.44-2.24,1-3.39,1.38-3.47,1.21-7,2.35-10.44,3.55-1.07.37-2.11.86-3.15,1.33-.18.08-.27.35-.4.53a3.68,3.68,0,0,0-1,.06q-2.64,1-5.23,2c-.27.12-.69.23-.74.83,1.28-.35,2.47-.61,3.61-1a7.46,7.46,0,0,0,3.27-2,15,15,0,0,0,6.46-1.27c3.29-1.28,6.51-2.73,9.73-4.17.78-.35,1.72-.57,2.11-1.51A20.52,20.52,0,0,0,243.62,43c.06,0,0-.28,0-.42l1.38.1c-.49-.26-.63-.41-.72-.38A3.13,3.13,0,0,0,243.69,42.65ZM117.41,117.54l.4.41.18-.27-.61-.1c-.11-.88-.86-1.15-1.49-1.43-1-.44-2-.73-3.14-1.14.1.7.17,1.2.27,1.85Zm114-24.84a6.36,6.36,0,0,0,1.46-.11c3.06-1,6.13-1.94,9.14-3a23.65,23.65,0,0,1,5.87-1.82,3.24,3.24,0,0,0,.94-.31c1.7-.78,3.4-1.58,5.2-2.42V83.3c-.68.21-1.22.34-1.74.52-1.31.48-2.59,1.07-3.93,1.46a64.73,64.73,0,0,0-8.7,3.49c-2.09,1-4.15,2-6.22,3-.66.32-1.31.66-2,1l-.31.23Zm.65,41.85c4.09-1.26,8.17-2.57,12.17-4.11,2.59-1,5.41-1.39,7.83-2.88a16.33,16.33,0,0,0,4.34-1.75c1.19-.54,2.44-1,3.66-1.45.76-.31,1.55-.56,2.28-.94a.75.75,0,0,0,.2-1.09,1,1,0,0,0-.76-.44,4.05,4.05,0,0,0-1.38.48,9.74,9.74,0,0,1-4.38,1.55c-.37,0-.74.31-1.11.48-.83.36-1.65.77-2.5,1.09-2.23.83-4.49,1.61-6.73,2.43-4.51,1.63-8.6,4.16-13,6-.23.1-.36.45-.55.68h0Zm-31.3-2.75c0-.29,0-.75.17-.83a4.83,4.83,0,0,1,1.62-.45,43.89,43.89,0,0,0,11.11-2.21,24.42,24.42,0,0,1,3.59-.88,10.57,10.57,0,0,0,3.75-1.16,19.68,19.68,0,0,1,6.19-2.38,11.6,11.6,0,0,0,3.63-1.53,22.39,22.39,0,0,1,3.88-2.16c4.8-1.74,9.65-3.33,14.48-5,1.79-.61,3.59-1.2,5.37-1.82,1.32-.46,2.64-.94,3.94-1.44a8.47,8.47,0,0,0,1-.55c-.14-1-.65-1.27-1.42-1.11a13,13,0,0,1-2.37.59,8,8,0,0,0-3.08.79c-1.75.73-3.47,1.55-5.27,2.14a8.74,8.74,0,0,0-3.49,1.73,4.71,4.71,0,0,1-1.77.81c-.86.28-1.77.42-2.62.71a6.12,6.12,0,0,0-2,1,7.84,7.84,0,0,1-3.33,1.52A12.75,12.75,0,0,0,230,121a11.42,11.42,0,0,1-3.64,1.47c-1.44.36-2.89.7-4.31,1.11a8.58,8.58,0,0,0-2.29.89,5.8,5.8,0,0,1-4,1,3.55,3.55,0,0,0-2.83.66c-1.6,1.41-3.66,1.83-5.47,2.78a4.9,4.9,0,0,1-2.65.43q-2.84-.21-5.68-.35a6.65,6.65,0,0,1-3.64-.8c-1.26,2.36-4,3.32-4.87,5.8.5.59,1,.63,1.4.25a7.45,7.45,0,0,0,.82-1.2c1.11-1.59,2-1.8,3.75-1a2.66,2.66,0,0,0,1.37.28c1-.12,1.91-.38,2.86-.59a2.18,2.18,0,0,1-1.55,2.88,8.35,8.35,0,0,1-1.87.5,16.21,16.21,0,0,1-2.12-.08c-1,.83-1.83,1.58-2.68,2.35-.29.26-.69.5-.44,1.11a14.32,14.32,0,0,0,3.47.85,9.75,9.75,0,0,0,3.83-.81c.83-.36,1.41-1.29,2.21-2.08,5.35-1,10.9-1.79,16.27-3.44a8,8,0,0,1,1-.16,32.66,32.66,0,0,0,7.1-2.08c2.45-1,4.91-1.92,7.34-2.94,1.21-.51,2.35-1.18,3.53-1.76,1.4-.69,2.77-1.45,4.22-2,3.82-1.53,7.68-3,11.52-4.47,2.6-1,5.19-2.08,7.78-3.13.14-.06.24-.21.42-.37-.16-.52-.31-1-.46-1.54a6.88,6.88,0,0,0-3.47.82,41.66,41.66,0,0,1-5.05,2c-4.24,1.09-8.31,2.67-12.44,4.09a35.43,35.43,0,0,0-7.59,3.54,10.91,10.91,0,0,1-3.63,1.5,20.37,20.37,0,0,0-6.21,2.37,9.4,9.4,0,0,1-3.75,1.13,22.1,22.1,0,0,0-4.1.84,39.11,39.11,0,0,1-7,1.48,15.13,15.13,0,0,1-5.41.14C201.39,132.35,201.1,132,200.77,131.8Zm42.18-70a25.32,25.32,0,0,1-4.84,1.69,14.39,14.39,0,0,0-4.77,1.84,2.91,2.91,0,0,1-1.34.52,8.45,8.45,0,0,0-3.33.85,6.71,6.71,0,0,1-1.89.51,34.12,34.12,0,0,0-10,2.46c-3.1,1.21-6.32,1.89-9.49,2.78a4.18,4.18,0,0,1-1.25-.1c.24-.38.32-.67.49-.74.61-.24,1.25-.42,1.88-.6a48.22,48.22,0,0,0,8.68-2.86,19.6,19.6,0,0,1,1.88-.6c3.63-1.38,7.63-1.33,11.19-3a1.46,1.46,0,0,1,.72-.12,4.21,4.21,0,0,0,2.29-.76c1.44-.74,2.72-1.87,4.54-1.7.43.05.91-.33,1.38-.49.93-.31,1.86-.65,2.81-.89,2.76-.7,5.5-1.48,8.29-2.36a9.66,9.66,0,0,0-1.16-4,3.71,3.71,0,0,0-.78.31,10.92,10.92,0,0,1-4.6,1.67,8.93,8.93,0,0,0-2.34.77q-11.4,4.81-23.21,8.53c-2.51.79-5.09,1.38-7.64,2a34.85,34.85,0,0,0-5,1.29A43.3,43.3,0,0,1,197.28,71a8.17,8.17,0,0,1-1.7-.07c.4-.45.56-.79.8-.86,1.25-.39,2.52-.76,3.81-1a23.38,23.38,0,0,0,6.31-2.54,8,8,0,0,0,1.47,0c2.16-.51,4.35-1,6.46-1.64,8.71-2.8,17.35-5.77,25.8-9.28a15.79,15.79,0,0,1,3.52-1.1,12.25,12.25,0,0,0,4.79-2.16c.12-.72.19-1.29-.65-1.67l-2.16.86c-1.46.57-2.91,1.15-4.37,1.71-2,.77-4,1.5-6,2.3-4,1.6-7.82,3.51-12.07,4.34-1.34.26-2.76.49-3.63,1.79-.12.18-.43.25-.66.33-2.86,1.05-5.62,2.36-8.57,3.17a10.88,10.88,0,0,0-3.88,1.42c-.73.09-1.48.14-2.2.29-1.21.26-2.42.52-3.6.88a11.3,11.3,0,0,1-5.63,0,2.76,2.76,0,0,1-.77-.48c.53-.84,1.26-.58,1.87-.59a14.38,14.38,0,0,0,3.92-.29c2.84-.87,5.68-1.74,8.56-2.47,3.44-.87,6.6-2.58,10.09-3.3a.75.75,0,0,0,.44-.2c.76-1.06,2-1.09,3.07-1.39a57,57,0,0,0,8.89-3A100.78,100.78,0,0,1,242,51.65c1.63-.54,3.19-1.33,4.78-2,.12,0,.18-.24.33-.47-.22-.43-.48-.91-.76-1.45-14.21,5.55-28.84,9.17-43.38,12.79-.5-.41-.65-.85-.15-1.06.9-.38,1.87-.6,2.8-.92.48-.17.93-.42,1.66-.76l-5.2-.88c-.27.19-.56.36-.81.57a7.3,7.3,0,0,1-7.19,1.41,12.29,12.29,0,0,0-7.26.28,2.53,2.53,0,0,0-1.17.82,15.94,15.94,0,0,0-1.1,1.78c.63,1.23.56,1.22.37,2.15-.32,1.61-1.09,3.09-1.16,4.79-.23,5.28-.52,10.55-.84,15.82-.14,2.45.72,4.7,1.29,7a5.33,5.33,0,0,0,2.12,3.1,6.89,6.89,0,0,0,.77-.48c.37-.32.74-.65,1.08-1a1.32,1.32,0,0,0,0-2.14,4.54,4.54,0,0,1-1.21-1.48c-.85-1.47-.64-3-.53-4.58q.42-5.93.89-11.84a2,2,0,0,0-.53-1.82,3,3,0,0,1-.84-2.94c.15-1.23.24-2.47.4-3.7a2,2,0,0,1,1.77-1.81.8.8,0,0,1,1,.55c-.4.45-1,.87-1.16,1.39a5.7,5.7,0,0,0,.1,3.1c.34-.36.73-.6.7-.78-.17-1.24.72-2,1.27-2.86.4-.66,1-.77,1.67-.23a1.78,1.78,0,0,0,1.81.36c.7-.21,1.44-.26,2.16-.43a5.91,5.91,0,0,0,2.07-.65,16.54,16.54,0,0,1,4.24-2,17.31,17.31,0,0,1,3.53-.55,1.48,1.48,0,0,1-1.33,1.68,14.92,14.92,0,0,0-5.91,2.26,4.54,4.54,0,0,1-2.33.7c-2.37.06-4.19,1.25-6,2.57-.23.17-.3.57-.44.84.48,1.69,1,3.32,1.42,5,.87,3.41.83,3.41.58,7-.14,2-.22,4-.31,5.93,0,.3-.1.68.36.78.15-.07.36-.09.42-.2,1.34-2.41,3.54-3.56,6.1-4.22a28.29,28.29,0,0,0,5.56-2,4.55,4.55,0,0,1,1.64-.55c3.41-.29,6.57-1.52,9.77-2.6a21,21,0,0,1,4.79-1.17,21.44,21.44,0,0,0,6.65-1.85,86.9,86.9,0,0,1,13.4-4.34,25.08,25.08,0,0,0,6.84-2.8,9.52,9.52,0,0,1,3-1.13c.47-.09.92-.22,1.35-.32a9.68,9.68,0,0,0-.73-4.64,23,23,0,0,0-6.79,2.13,36.94,36.94,0,0,1-4.48,2.07q-9.62,3.22-19.3,6.26a32.39,32.39,0,0,1-4.85.88,4.21,4.21,0,0,1-1.14-.15c0-.66.38-.8.8-.88a46,46,0,0,0,4.83-1q9.65-3.14,19.24-6.43a37.32,37.32,0,0,0,3.8-1.77.84.84,0,0,0,.51-1,1.55,1.55,0,0,0,.41.2c.08,0,.18-.13.27-.2l-.23,0Zm-37.87,46.86a33.33,33.33,0,0,0-3.87.69,14.09,14.09,0,0,1-6.13.12c-.25,0-.46-.32-.71-.5.53-.84,1.26-.67,1.86-.6a14.26,14.26,0,0,0,5.11-.64c5.83-1.53,11.5-3.53,17.22-5.39.23-.08.54-.1.68-.27.8-1,2-1.09,3.09-1.36a57.45,57.45,0,0,0,10-3.49c3-1.36,6.12-2.46,9.19-3.65a75,75,0,0,1,12.46-4c.2,0,.36-.3.6-.51-.18-.69-.35-1.38-.54-2.14a6.14,6.14,0,0,0-1.09.25c-1.43.61-2.81,1.38-4.29,1.86a40.4,40.4,0,0,0-4.75,1.32,36.5,36.5,0,0,1-3.69,1.42c-11.86,4.1-24,7.23-36.17,10.23a4.12,4.12,0,0,1-1.21.12c-.14,0-.26-.35-.46-.64a11.32,11.32,0,0,1,1.36-.67c.78-.26,1.59-.42,2.37-.68a4.39,4.39,0,0,0,.94-.69l-5.13-.77a7.87,7.87,0,0,1-8.26,1.87,11.73,11.73,0,0,0-7,.39,3.18,3.18,0,0,0-1.7,1.72,1.54,1.54,0,0,0,.09,1.83c.16.23-.07.75-.13,1.14-.28,1.62-1.09,3.09-1.17,4.78q-.34,7.92-.84,15.82c-.15,2.46.69,4.7,1.27,7a7,7,0,0,0,.95,2,8.38,8.38,0,0,0,1.22,1.27c.71-.64,1.34-1.15,1.9-1.73a1.21,1.21,0,0,0,0-1.94,5.22,5.22,0,0,1-1.25-1.47,7.75,7.75,0,0,1-.57-4.57c.29-3.95.58-7.9.91-11.85a2.66,2.66,0,0,0-.61-2,2.74,2.74,0,0,1-.77-1.47,46.37,46.37,0,0,1,.55-5.4c.07-.47.65-.94,1.11-1.23a1.06,1.06,0,0,1,1.51.25c-1.45,1.61-1.47,1.66-1,4.54.29-.29.69-.53.67-.71-.14-1.23.72-2,1.26-2.87a1,1,0,0,1,1.5-.34,2.21,2.21,0,0,0,2.52.26,3.21,3.21,0,0,1,1.44-.22,4,4,0,0,0,2.55-.79,15.31,15.31,0,0,1,7.39-2.47c0,.33.13.59.05.77a1.69,1.69,0,0,1-1.31,1,14.66,14.66,0,0,0-5.7,2.15,5,5,0,0,1-2.54.78,10.14,10.14,0,0,0-5.79,2.45,1.63,1.63,0,0,0-.51,1.29,38.11,38.11,0,0,0,1,3.77,16.9,16.9,0,0,1,1,7c-.28,2.29-.3,4.61-.41,6.92a2.86,2.86,0,0,0,.26.84c.3-.18.49-.23.56-.35a9.05,9.05,0,0,1,5.89-4.12c1.9-.53,3.71-1.36,5.58-2,1-.35,2.05-.59,3.08-.85,1.44-.35,2.91-.61,4.32-1,1.82-.54,3.6-1.21,5.41-1.78a12.87,12.87,0,0,1,2.64-.64,23.78,23.78,0,0,0,7.39-1.92A89.68,89.68,0,0,1,240,112.25a25,25,0,0,0,6.62-2.69,11,11,0,0,1,3.21-1.21c2.33-.53,4.65-1.11,7-1.7a5.85,5.85,0,0,0,1.19-.62c-.3-1.28-.53-2.41-.84-3.53a7.89,7.89,0,0,0-.61-1.29c-1,.39-1.8.76-2.66,1a25.26,25.26,0,0,1-3.08.9,29.74,29.74,0,0,0-7.92,2.73,24.12,24.12,0,0,1-3.58,1.65c-6.5,2.17-13,4.25-19.52,6.39a24,24,0,0,1-5.12.84,1,1,0,0,1-.48-.06c-.13,0-.33-.23-.31-.31s.15-.5.3-.56a6.93,6.93,0,0,1,1.2-.26,35.26,35.26,0,0,0,3.86-.82c6.58-2.15,13.15-4.37,19.72-6.57a22.65,22.65,0,0,0,4.71-2.41,12.2,12.2,0,0,0-4,.89,7.35,7.35,0,0,1-2.34.71,4.61,4.61,0,0,0-2.07.71c-.93.52-1.87,1.34-2.84,1.4a16.17,16.17,0,0,0-4.49,1.25,4.09,4.09,0,0,1-1.2.26,29.35,29.35,0,0,0-9.58,2.26c-3,1.15-6.14,1.9-9.23,2.76a11.83,11.83,0,0,1-2.12.14c.62-.56.86-.92,1.17-1a75.27,75.27,0,0,0,11-3.59c.22-.09.47-.13.7-.22,3.78-1.43,8-1.37,11.64-3.12a.55.55,0,0,1,.25,0c1.25.19,2.2-.53,3.19-1.08,1.22-.69,2.36-1.52,3.88-1.36a1.43,1.43,0,0,0,.7-.2c3.55-1.6,7.43-2,11.08-3.27.08,0,.17,0,.24,0a6.61,6.61,0,0,0,1.58-.68,12.22,12.22,0,0,1,4.26-1.91c.12,0,.2-.22.33-.39l-.78-.85c.3-.77,1-1.57,0-2.23-1.52.42-2.93.89-4.37,1.2-1.66.35-3,1.43-4.51,2s-3.23.72-4.74,1.34q-11.53,4.8-23.44,8.61c-2.36.75-4.73,1.41-7.15,1.93a34.28,34.28,0,0,0-6,1.58c-2.64,1.08-5.43,1.35-8.15,2a.75.75,0,0,1-.47,0,.62.62,0,0,1-.3-.34A.48.48,0,0,1,196,112a2.94,2.94,0,0,1,.87-.43c1.28-.33,2.57-.62,3.84-1,1.56-.41,3.17-.72,4.31-2a5.61,5.61,0,0,0,1.23,0c2.8-.67,5.64-1.24,8.38-2.11,8.71-2.79,17.35-5.78,25.8-9.3a23.14,23.14,0,0,1,3.29-1A13.1,13.1,0,0,0,247,95a16.17,16.17,0,0,1,3-1.18c1.1-.36,2.24-.57,3.32-1a5.65,5.65,0,0,0,1.61-1.07c.12-.09.06-.47,0-.69s-.25-.22-.39-.24a1.79,1.79,0,0,0-.73,0c-2.88.72-5.81,1.21-8.53,2.5-1.63.77-3.38,1.3-5.07,1.93-1.08.41-2.18.78-3.23,1.23-4.93,2.1-9.8,4.37-15.11,5.39a4.41,4.41,0,0,0-.7.23c-.23.09-.56.14-.65.31-.6,1.2-1.87,1.26-2.89,1.73a84.1,84.1,0,0,1-11.67,4A3.86,3.86,0,0,0,205.08,108.62Zm-80.56,13.09c-.37.35-.74.15-1.14,0-3.31-1-6.6-2.11-9.95-2.95a42.57,42.57,0,0,1-6.73-2.45,5.22,5.22,0,0,1-1.24-.79,13.68,13.68,0,0,0-5.89-3,23.4,23.4,0,0,1-7.51-3.12,3.56,3.56,0,0,0-4.31,0c-.19.77-.36,1.48-.52,2.16-.52.47-1.31.14-1.76.85a3.55,3.55,0,0,0-.75,2,3.58,3.58,0,0,1-1.3,2.79,4.08,4.08,0,0,0-1.23,2.88,14.71,14.71,0,0,1-.52,2.66,40.78,40.78,0,0,0-.49,10.58,3.08,3.08,0,0,0,.16.73c.59,2.06,1.16,4.13,1.81,6.17s.66,2,2.74,2.06a4.53,4.53,0,0,1,.74,0c1.22.22,2.52.34,2.72,2a1,1,0,0,0,.44.57,21.64,21.64,0,0,0,4,2.33c2,.69,4,1.51,6,2.39.48.21,1,.7,1.59.34a11.89,11.89,0,0,0-3.7-4.74,3.68,3.68,0,0,1-1.13-.92c-.84-1.41-1.64-2.86-2.36-4.34-.2-.4-.12-1,.8-1l2.86,4.43a1.33,1.33,0,0,0,0-.93c-.27-.68-.6-1.35-.84-2.05-.12-.33,0-.64.58-.65.81.76,1.09,1.94,1.75,2.86a5.77,5.77,0,0,0,1,.9c-.06-1.87-.21-3.59-.14-5.3.09-2.39.32-4.77.57-7.15a13.64,13.64,0,0,1,1.29-5.5,4.31,4.31,0,0,0,.37-1.44c.23-1.72,1.27-3.21,1.42-5a2.67,2.67,0,0,1,.75-1.26c.15-.18.49-.2.73-.29.12.24.19.32.18.38-.79,3.19-1.59,6.37-2.38,9.55a6.26,6.26,0,0,0-.15,1.22c-.14,3.47-.28,6.93-.4,10.4a9.14,9.14,0,0,0,.11,2.22q.64,3.15,1.44,6.27a7.11,7.11,0,0,0,.86,1.75c.58,1,1.21,1.94,2,3.17.36.16,1,.46,1.73.73,2.91,1.15,5.83,2.31,8.76,3.4a28.38,28.38,0,0,0,3.79,1.13,29,29,0,0,1,6.08,2,26.25,26.25,0,0,0,3.5,1.2c1.19.36,2.39.65,3.58,1,6.52,1.81,12.93,4,19.32,6.19a3.94,3.94,0,0,0,2.82.17c-.44-2.18-1-4.27-1.26-6.38-.27-1.95-.26-3.94-.38-5.91.84-2.22.56-4.57.82-6.85a28.71,28.71,0,0,1,.62-4.66c.71-2.36,1.69-4.65,2.59-7,.1-.25.41-.41.66-.65a1.88,1.88,0,0,1,.28,2,54.16,54.16,0,0,0-1.48,13.24c0,1.48-.17,3-.23,4.45,0,.91,0,1.82,0,2.78.54.65,1.17,1.31,1.7,2a23.52,23.52,0,0,1,1.6,2.5,3.23,3.23,0,0,0,1.37,1.37,5.24,5.24,0,0,1,2.23,2.24,1,1,0,0,1-.19.86.68.68,0,0,1-.68,0,24,24,0,0,0-2.2-1.59,4.5,4.5,0,0,1-2.16-2.27c-.21-.45-.35-1.1-1.09-1.09.27,3,.27,3,2.24,6.82,3.62.75,6.93,2.59,10.47,4.16.12-1.16,0-1.9-1.06-2.39a2.53,2.53,0,0,1-1.35-1.34,8.6,8.6,0,0,0-2.23-3.78,5.16,5.16,0,0,1-.81-1.78c-.09-.26.07-.6.14-1.06,1.71.65,2,2.77,3.72,3.18a4.93,4.93,0,0,0-.17-2.45,28.49,28.49,0,0,1-.43-7.88c.35-2.61.51-5.26.67-7.89a12.41,12.41,0,0,1,1-4.57,7.53,7.53,0,0,0,.47-1.91c.1-.48.06-1,.2-1.47.08-.27.37-.48.57-.72.2.22.57.44.57.66a12,12,0,0,1-.26,3.66,17.91,17.91,0,0,0-.8,5.36c-.08,2.14-.06,4.3-.25,6.43a34.44,34.44,0,0,0,.61,9.12c.31,1.7.57,3.41,1,5.1a23.27,23.27,0,0,0,1.23,4.55c1.36.46,2.52.87,3.68,1.25a2.79,2.79,0,0,0,2.4,0c-.8-1.5-1.57-2.88-1.45-4.52-.81-1.77-.35-3.74-.89-5.57a5.94,5.94,0,0,1,0-2.22c.33-3,.69-6.07,1-9.1.2-1.72.35-3.45.6-5.17a3.19,3.19,0,0,1,.67-1.79,4.79,4.79,0,0,0,1.37-3.33A7,7,0,0,1,183,141c.16-.2.08-.59.1-.85l-3.37-1.07-.73.57c-1-.34-2-.72-3.05-1-1.75-.47-3.52-.87-5.28-1.3a4.7,4.7,0,0,1-2.8-1.45,6.64,6.64,0,0,0-3.08-2,70.85,70.85,0,0,0-7.92-2.78c-3-.78-6-1.83-8.94-2.81a6.47,6.47,0,0,0-1.89-.56c-2.21,0-4.19-.81-6.24-1.45a3.66,3.66,0,0,0-1.19-.3,12.77,12.77,0,0,1-4.31-1l-8.46-2.68c-.46-.15-.89-.39-1.33-.57l.28.13Zm-22.64-14.16c-.52-2.34-1.06-4.57-1.48-6.83a14.08,14.08,0,0,1-.29-3.42c.13-2.72.35-5.44.63-8.15A12.37,12.37,0,0,1,102,83.89a4.49,4.49,0,0,0,.35-1.18c.47-1.74.9-3.49,1.43-5.21a5,5,0,0,1,.89-1.47c.11-.15.41-.15.62-.22.09.2.24.36.21.48-.35,1.35-.75,2.68-1.09,4-.49,2-.95,4-1.41,6a4.53,4.53,0,0,0,0,.74c-.12,3-.25,6.1-.36,9.15a27.71,27.71,0,0,0,1.76,9.91,12.51,12.51,0,0,1,2.22,1.33,12.86,12.86,0,0,1,2.88,3.31,4.32,4.32,0,0,0,2.78,2.18c1.85.71,3.68,1.45,5.54,2.12a24.31,24.31,0,0,0,3.32,1,24.65,24.65,0,0,1,6.31,2.1,11.23,11.23,0,0,0,1.84.74c4,1.14,7.93,2.25,11.9,3.36a9.81,9.81,0,0,0,1.25.15,9.5,9.5,0,0,0-1.18-1.84,20.53,20.53,0,0,1-3.08-4.17c-.2-.31-.6-.62-.23-1.07a3.83,3.83,0,0,1,3.38,2.09c.83,1.31,2.23,2.21,2.83,3.72a1.17,1.17,0,0,0,.53.5,3.12,3.12,0,0,1,1.42,2.18,10.59,10.59,0,0,0,3.55,1,71.07,71.07,0,0,1-3.43-7.23,3.18,3.18,0,0,1,1,0c.2.08.34.35.45.56a35.87,35.87,0,0,0,3.22,5.56,6.42,6.42,0,0,1,.6,1.87c1.44.38,2.79,1.5,4.54,1.17a1.57,1.57,0,0,0-.76-1.76l-1,.73-1.66-.93a3.32,3.32,0,0,0,.15-1.23c-.1-.39-.42-.71.17-1.1l2.81,1a14.75,14.75,0,0,0-.23-2.16,16.13,16.13,0,0,1-.37-5.41c.21-2.88.41-5.76.65-8.64a21.48,21.48,0,0,1,.59-4.4c.71-2.37,1.69-4.65,2.59-6.95.1-.25.42-.4.62-.59.71.57.46,1.17.36,1.69-.31,1.71-.68,3.4-1,5.1a12.87,12.87,0,0,0-.32,1.94q-.28,6.57-.52,13.12a12.61,12.61,0,0,0,.13,2.46c.53,3,.86,6.06,2.76,8.83,1.56.56,3.32,1.22,5.1,1.82s3.2,1.82,5.17,2.2c-.93-1.41-1.77-2.62-2.54-3.88-.12-.2.07-.58.12-.87a2,2,0,0,1,.67.13,10.56,10.56,0,0,1,1.13,1c-.12-1.06-.16-1.78-.28-2.49-.18-1-.45-2.09-.61-3.15a24.82,24.82,0,0,1-.44-7.88c.16-1,.12-2,.2-3,.19-2.22.33-4.45.61-6.66s1.56-4.17,1.54-6.46a.35.35,0,0,1,.12-.21c.12-.1.3-.28.38-.25s.5.22.53.39a6.89,6.89,0,0,1-.16,3.9,14.59,14.59,0,0,0-.83,5.1c-.06,2.23,0,4.46-.25,6.68a34.9,34.9,0,0,0,.66,9.35c.28,1.55.54,3.09.87,4.63a28.57,28.57,0,0,0,1.26,4.77c1.29.43,2.38.78,3.46,1.15a3.13,3.13,0,0,0,2.5.06,10.79,10.79,0,0,1-1.41-4.9c-.77-1.2-.16-2.61-.57-3.87a9.47,9.47,0,0,1-.12-4.17c.12-1,.22-2,.33-3,.39-3.45.76-6.9,1.16-10.34a3.52,3.52,0,0,1,1.17-2.63,3.24,3.24,0,0,0,.89-2.49,7.9,7.9,0,0,1,1.5-4.37c.08-.1,0-.31,0-.62a12.29,12.29,0,0,1-2.43-.85c-.75-.45-1.21-.14-1.79.28a46.49,46.49,0,0,0-7.82-2.19,6,6,0,0,1-3.62-2,3.76,3.76,0,0,0-1.39-1c-1.74-.73-3.49-1.47-5.27-2.07-4.38-1.46-8.77-2.85-13.16-4.25a7.22,7.22,0,0,0-2.15-.5,12.66,12.66,0,0,1-4.09-.86,13.39,13.39,0,0,0-2.85-.77,15.08,15.08,0,0,1-3.6-.83c-2.42-.82-4.84-1.65-7.28-2.39-3-.92-6-1.76-9-2.63-1.66-.48-3.31-1.07-5-1.4a31.61,31.61,0,0,1-7-2.51,5.51,5.51,0,0,1-1.24-.78,13.82,13.82,0,0,0-5.66-2.9,24.5,24.5,0,0,1-8.15-3.46A3.33,3.33,0,0,0,89.25,67c-1.11.1-1.42.37-1.7,1.43-.12.47-.21,1-.3,1.37-.59.39-1.36.09-1.78.83a3.89,3.89,0,0,0-.73,1.8c0,.16,0,.33,0,.49a2.82,2.82,0,0,1-1,2.18,4.43,4.43,0,0,0-1.56,3.5,11.27,11.27,0,0,1-.46,2.16c-.2,1.13-.4,2.27-.51,3.41s0,2.32-.15,3.46c-.41,4.19,1.24,7.94,2.41,11.79a1.64,1.64,0,0,0,1.91,1.2,8.15,8.15,0,0,1,2,.11c.93.15,1.74.49,1.94,1.6a1.28,1.28,0,0,0,.48.8,49.28,49.28,0,0,0,4.28,2.46c1.33.63,2.79,1,4.15,1.56A5.81,5.81,0,0,0,101.88,107.55Zm99.43-12.74c1-.19,1.86-.37,2.74-.53,2.84-.53,5.69-1,8.52-1.59,2.25-.48,4.45-1.24,6.72-1.66a36,36,0,0,0,6.62-2c2.38-.93,4.77-1.84,7.12-2.84,1.44-.62,2.8-1.4,4.2-2.09,1.18-.58,2.34-1.23,3.56-1.71,3.45-1.37,6.93-2.66,10.39-4a5.4,5.4,0,0,0,2.36-1.25,1.5,1.5,0,0,0-.7-1.77c-.35.08-.75.15-1.14.25a130.3,130.3,0,0,0-12.45,4.09,33.48,33.48,0,0,0-7.15,3.33,12.33,12.33,0,0,1-4.09,1.7,18.79,18.79,0,0,0-6,2.3,7.66,7.66,0,0,1-3.52,1.08,23.22,23.22,0,0,0-5.54,1.2c-.71.22-1.43.4-2.16.55a35.27,35.27,0,0,1-9.55.9c-1.23,2.9-3.77,2.54-6.15,2.51-1,1.17-2.32,1.89-3.26,3.23l3.61,1.14C197.62,97.12,200.26,97.56,201.31,94.81Zm-4-4.11c.95-.19,1.67-.32,2.38-.49.3-.07.74-.17.82-.38.4-1,1.2-1,2-1a40.3,40.3,0,0,0,10.65-2.09,18.81,18.81,0,0,1,4.3-1.07,9.59,9.59,0,0,0,3.95-1.32,16.29,16.29,0,0,1,5.05-2,15.18,15.18,0,0,0,4.78-2A24.12,24.12,0,0,1,235.85,78c5.13-1.78,10.17-3.88,15.49-5.12a7,7,0,0,0,1.37-.72c-.28-.67-.51-1.23-.75-1.79l-6.46,2.23a1.56,1.56,0,0,0-.62.39c-1.19,1.3-2.82,1.62-4.42,2a7.25,7.25,0,0,0-2.72,1.07,10.14,10.14,0,0,1-4,1.81,15.46,15.46,0,0,0-3.49,1.19,18.27,18.27,0,0,1-4.36,1.7c-1.28.32-2.56.63-3.82,1a11,11,0,0,0-2.52,1,5.69,5.69,0,0,1-3.74.94,3.53,3.53,0,0,0-2.84.61c-1.46,1.33-3.35,1.73-5,2.6a5.74,5.74,0,0,1-3.11.57c-1.82-.11-3.63-.17-5.45-.24a6.89,6.89,0,0,1-3.67-.73c-1.23,1.21-2.35,2.29-3.45,3.39a14.1,14.1,0,0,0-1.16,1.28,1.39,1.39,0,0,0-.31.66c0,.21,0,.58.16.64s.73.23.87.09A13.85,13.85,0,0,0,193,91.08c1.05-1.4,2-1.6,3.62-.76C196.84,90.43,197,90.56,197.27,90.7Zm46.21-18.92A82.66,82.66,0,0,0,228.77,76a33.61,33.61,0,0,1-9.21,2.69,16.18,16.18,0,0,0-2.88.65c-2.68.8-5.34,1.64-8,2.47-3-.07-5.56,1.4-8.35,2.08-.55.14-1.12.27-1.67.43a6.5,6.5,0,0,0-.78.4,12,12,0,0,0,4,.57,3.93,3.93,0,0,0,2.6-.54,4.83,4.83,0,0,1,1.62-.47c.89-.18,1.79-.26,2.66-.47,1.68-.43,3.32-1,5-1.35,1.2-.24,2.49,0,3.66-.36s2.35-1.18,3.59-1.6c1.71-.58,3.49-1,5.24-1.45a6.66,6.66,0,0,0,1.85-.65,20.27,20.27,0,0,1,6-2.31,4.74,4.74,0,0,0,2-.91,7.5,7.5,0,0,1,3.5-1.7c.87-.23,1.77-.42,2.61-.73A5.94,5.94,0,0,0,243.48,71.78Zm-45.33,54.53.06.48c.73.06,1.44.13,2.17.17,1.63.07,3.28.35,4.75-.77.28-.21.79-.12,1.19-.18.81-.14,1.63-.24,2.42-.43,1.52-.37,3-.83,4.54-1.18a13.67,13.67,0,0,1,2.91-.39,5.32,5.32,0,0,0,2.56-.71,18.57,18.57,0,0,1,3-1.21c1.41-.44,2.87-.74,4.29-1.15a8.92,8.92,0,0,0,2.3-.85,18.24,18.24,0,0,1,5.5-2.12,5.32,5.32,0,0,0,2.22-1,8.12,8.12,0,0,1,3.73-1.8c.79-.21,1.6-.39,2.37-.66a5.78,5.78,0,0,0,1.1-.76c-.44-.07-.69-.19-.9-.13-4.68,1.27-9.42,2.34-13.9,4.28a27.82,27.82,0,0,1-8,2.39,22.63,22.63,0,0,0-5,1.2c-.78.27-1.57.5-2.34.78a31.56,31.56,0,0,1-6.71,1.61,16.06,16.06,0,0,0-2.61.65c-1.5.44-3,.92-4.47,1.39Zm-.23,41.86,0,.36c1.15.06,2.31.09,3.45.22a4.54,4.54,0,0,0,3.31-.59,3.58,3.58,0,0,1,1.4-.42c1.2-.23,2.43-.39,3.62-.67,1.45-.33,2.85-.84,4.3-1.12,1.2-.24,2.49-.1,3.65-.42s2.38-1.12,3.61-1.54c1.56-.53,3.18-.88,4.76-1.34a9,9,0,0,0,2.31-.84,19.21,19.21,0,0,1,5.5-2.13,4.48,4.48,0,0,0,2-.83,8.5,8.5,0,0,1,4.18-2,20.15,20.15,0,0,0,2.14-.63,5.85,5.85,0,0,0,1.09-.79,3.54,3.54,0,0,0-.91-.09c-5,1.38-10,2.56-14.83,4.66a23.08,23.08,0,0,1-7.1,2,17.87,17.87,0,0,0-4.33,1c-1.32.47-2.67.83-4,1.3a23.46,23.46,0,0,1-5.78,1.28,8.78,8.78,0,0,0-2.14.51,29.36,29.36,0,0,1-5.43,1.66A4.34,4.34,0,0,0,197.92,168.17Zm125.22-20.08a1.88,1.88,0,0,0-1.82-.79c-3.37,0-6.74-.05-10.11,0a8.12,8.12,0,0,0-4.51,1.86h1c3.54,0,7.08.08,10.49-1.19a2.57,2.57,0,0,1,2.37.15A3.16,3.16,0,0,0,323.14,148.09ZM246,44.49a16.37,16.37,0,0,0-1.9.6q-5.94,2.71-11.86,5.5c-.11,0-.53.08-.17.48,4.82-1.55,9.72-2.9,14.37-5.16C246.31,45.41,246.2,45,246,44.49Zm70.85,106.84a38.48,38.48,0,0,0-11.31,1.83h1.51c1.51,0,3.08-.77,4.5.37.1.08.32,0,.48,0,1.62-.21,3.25-.42,4.87-.65.12,0,.23-.21.36-.32C317.16,152.18,317,151.81,316.88,151.33Zm6.58-.73c4.25.24,9.3-.09,11.2-.67A16.49,16.49,0,0,0,323.46,150.6ZM251,48.72l.54,0c0-1.78,0-3.57,0-5.36,0-.64-.37-1.07-1.22-.81C250,44.65,250.64,46.67,251,48.72Zm5.17,17c-1,.43-1.48.81-1.38,1.6.15,1.29.29,2.59.48,3.88a1.84,1.84,0,0,0,.81,1.55c0-.62.08-1.16.08-1.71C256.12,69.33,256.12,67.63,256.12,65.71ZM263,139.48a48.4,48.4,0,0,0-9.45,2.32c-.49.23-1.07.36-1.21,1l9.56-2.81A11.45,11.45,0,0,0,263,139.48ZM111.54,115a27.32,27.32,0,0,0-7.21-2.29,5.54,5.54,0,0,0,1,.82A22.15,22.15,0,0,0,111.54,115ZM253.35,57.61a8.52,8.52,0,0,0,0-3.79c-.72-.08-1.3,0-1.23.64A5.91,5.91,0,0,0,253.35,57.61ZM104.82,70.75c1.19,1.3,2.27,1.73,4.55,2.16.31.06.74.27,1-.32Zm257.11,58.1c.34-2.16-.34-4.12-1-6.52C360.37,124.93,361.48,126.84,361.93,128.85Zm-78.62,27.23a4.09,4.09,0,0,0,2.37.06c.48-.09.53-.48.12-1.48C285,155.22,283.94,155,283.31,156.08ZM256.09,99.42a5.71,5.71,0,0,0-3.73,1.52C253.88,100.83,254.19,100.71,256.09,99.42ZM289.81,150c1-.34,1.45-.47,1.89-.68s1,.27,1.11-.65C291.76,148.61,290.73,148.35,289.81,150Zm70-7.88a2,2,0,0,0-2.06.5A1.49,1.49,0,0,0,359.85,142.15Zm-101.32-21.3c-.13-.06-.28-.19-.37-.16-.44.15-.86.34-1.39.57C257.62,121.76,258.05,121.22,258.53,120.85ZM189,123.62h0c0-.23,0-.46,0-.69Zm.06,41.32a2.09,2.09,0,0,0-.08-.23,1.48,1.48,0,0,0,0,.21,2.09,2.09,0,0,0,.08.23Zm150.24-14.76c-1-.42-1-.42-1.88.1ZM189.05,81.68l-.09-.2a1.47,1.47,0,0,0,0,.21,1.33,1.33,0,0,0,.09.21Zm20.71-25.92a1.34,1.34,0,0,0,0,.2l.84,0a1.93,1.93,0,0,1,0-.24ZM249.59,27.7c-.09-.11-.2-.28-.24-.27a1.61,1.61,0,0,0-.56.31c-.06.06,0,.27,0,.4a.42.42,0,0,0,.22,0C249.22,28,249.4,27.85,249.59,27.7Zm18,107.56-.21-.64c-.11.06-.32.13-.31.18a4.18,4.18,0,0,0,.16.68ZM210.68,97.48a3.1,3.1,0,0,0-.42-.08s-.08.08-.11.13l.42.09S210.64,97.53,210.68,97.48ZM259,150l.19.1,0-.16Zm-5.71-27.29a.64.64,0,0,0-.23,0s0,.1-.06.16a.52.52,0,0,0,.21,0S253.21,122.76,253.24,122.7Z"/><path class="cls-2" d="M191.24,51.68a10.36,10.36,0,0,1-1.61-.11c-2-.45-4-.86-6-1.45A123.48,123.48,0,0,0,170.37,47a81.21,81.21,0,0,1-14-4,44,44,0,0,0-8.59-2.25,22.27,22.27,0,0,1-3.14-.7c-10.13-3.21-20.34-6.2-30.24-10.13-.6-.23-1.19-.5-1.81-.76l.48-1.13a3.71,3.71,0,0,1,2.52.41c9.25,3,18.51,6,27.75,9a70.81,70.81,0,0,0,7.45,1.79c1.28.27,2.55.63,3.82,1a18.07,18.07,0,0,1,2.1.74c6,2.5,12.24,3.89,18.53,5.23a114,114,0,0,1,14.92,4.43,4.88,4.88,0,0,1,1,.62S191.21,51.42,191.24,51.68Z"/><path class="cls-2" d="M96.5,30.12c-.88,2-1.62,3.64-2.3,5.3A6,6,0,0,0,94,36.63a8,8,0,0,1-.35,1.93,15.15,15.15,0,0,0-.91,5.32c-.14,2.71-.32,5.43-.39,8.14a9.89,9.89,0,0,0,1.21,5.46,14.65,14.65,0,0,1,1.24,2.94,1.27,1.27,0,0,1-.45,1,.73.73,0,0,1-1.07-.28c-2-3-3.46-6.14-3.12-9.89.27-3,.42-5.91.64-8.87a10.66,10.66,0,0,1,.9-4.07,3.21,3.21,0,0,0,.36-1.42c0-2,1-3.6,1.84-5.29A4.77,4.77,0,0,1,95.41,30C95.61,29.87,96.09,30.07,96.5,30.12Z"/><path class="cls-2" d="M121.35,67.55a1.55,1.55,0,0,1,.67.35,19.4,19.4,0,0,1,1.9,2.55c.7,1.2,1.15,2.55,2.43,3.32.12.07.15.5.05.63a.76.76,0,0,1-.63.23,2.77,2.77,0,0,1-2.3-1.63,8.89,8.89,0,0,0-2.69-3.77,1.43,1.43,0,0,1-.37-.62C120.23,68.2,120.71,67.53,121.35,67.55Z"/><path class="cls-2" d="M118.25,69.08a3.82,3.82,0,0,1-.71.41.71.71,0,0,1-.46-.1c-2.31-1.25-3.21-3.4-3.67-5.8a1,1,0,0,1,.73-1.13,1,1,0,0,1,1.11.77c.08.23.06.49.15.72a9.29,9.29,0,0,0,2,3.87A6.34,6.34,0,0,1,118.25,69.08Z"/><path class="cls-2" d="M130.16,71.93c2.48,1.13,4.81,1.62,5.76,4.12-.44.62-1.19.67-1.42.15-.81-1.85-2.35-2.34-4.26-2.41C130.22,73.23,130.2,72.79,130.16,71.93Z"/><path class="cls-2" d="M146.78,74c.27.14.63.2.8.41a5.82,5.82,0,0,1,1.47,4.71c0,.24-.38.61-.58.61a.9.9,0,0,1-.64-.57A26.13,26.13,0,0,0,146.78,74Z"/><path class="cls-2" d="M142.93,78.1a3.47,3.47,0,0,1-2.59-2.93c.23-.09.55-.32.63-.26a16.09,16.09,0,0,1,1.93,1.85C143.08,77,142.93,77.47,142.93,78.1Z"/><path class="cls-2" d="M281.28,35c.22-.16.44-.45.7-.49a16,16,0,0,1,2-.18c2.3-.12,4.61-.19,6.92-.36,1.22-.09,2.43-.38,3.66-.5,3.11-.3,6.19-.8,9.3-1.12a29.61,29.61,0,0,0,4.87-.7,21.94,21.94,0,0,1,7.06-1.1,4.25,4.25,0,0,0,1.46-.19,17.45,17.45,0,0,1,5.88-.58,10.17,10.17,0,0,0,4.38-.59.7.7,0,0,1,.23-.08c3.54-.1,7-1.45,10.53-1.09.41,0,.83,0,1.23.1,1,.15,1.54.52,1.44,1-.14.72-.77.79-1.33.87a11.1,11.1,0,0,1-1.73.12,18.86,18.86,0,0,0-5.88.63,9.72,9.72,0,0,1-2,.19,7.7,7.7,0,0,0-1.94.28,11.75,11.75,0,0,1-4.88.6,18.08,18.08,0,0,0-5.62.62,6.17,6.17,0,0,1-1.95.27,18.06,18.06,0,0,0-5.84.87,35.14,35.14,0,0,1-5.59.87c-3.18.37-6.36.72-9.52,1.24a18.86,18.86,0,0,1-4.17.42c-2.55-.16-5.11-.26-7.66-.41C282.28,35.69,281.65,35.76,281.28,35Z"/><path class="cls-2" d="M284.69,137.87a18.91,18.91,0,0,1,2.14.46,1,1,0,0,1,.49.73,1,1,0,0,1-.49.76,3,3,0,0,1-1.42.34,5.48,5.48,0,0,0-4,1.5,23.4,23.4,0,0,1-2.9,1.85,1.25,1.25,0,0,1-1.38.16c-.36-.22-.35-1,.09-1.57a5,5,0,0,1,1.14-1.28c1.05-.78,2.16-1.5,3.28-2.18A4.83,4.83,0,0,1,284.69,137.87Z"/><path class="cls-2" d="M273.84,29.33c.34.35.44.4.45.46.57,2.55,1.14,5.1,1.68,7.65a.68.68,0,0,1-.35.55.79.79,0,0,1-.66-.16c-1.39-1.34-1.72-3.13-1.93-4.92a9.7,9.7,0,0,1,.15-2.46C273.23,30.11,273.55,29.81,273.84,29.33Z"/><path class="cls-2" d="M290.05,139.61l-1.95-1a3.18,3.18,0,0,1,2.62-1.31c.9,0,1.79,0,2.69.1a.71.71,0,0,1,.71.81,1.47,1.47,0,0,1-.68.87,4.12,4.12,0,0,1-1.19.19Z"/><path class="cls-2" d="M277.39,140a12.41,12.41,0,0,1,.24-1.77.67.67,0,0,1,.54-.35c.2,0,.53.24.54.4a3.07,3.07,0,0,1-.1,1.35C278.54,139.84,278,139.85,277.39,140Z"/><path class="cls-2" d="M90.48,89.46c.09-1.57.18-3.13.29-4.69a12.16,12.16,0,0,1,1-4.79A1.86,1.86,0,0,0,92,79c-.12-1.82.81-3.33,1.44-4.92a4,4,0,0,1,2-2.4,1.06,1.06,0,0,1,.84.18.68.68,0,0,1,0,.65c-1.13,1.2-1.21,2.87-2,4.22a1,1,0,0,0-.19.45c-.07,2.81-1.47,5.37-1.45,8.22s-.29,5.59-.36,8.39a9.78,9.78,0,0,0,1.24,5.45,15.54,15.54,0,0,1,1.18,2.7.86.86,0,0,1-.48,1.21.88.88,0,0,1-1.07-.37c-2-3.08-3.49-6.33-3-10.16.12-1.07.16-2.14.24-3.21Z"/><path class="cls-2" d="M117.26,112.71a1,1,0,0,1-1.45-.33,3.37,3.37,0,0,1-.46-1.1,4.44,4.44,0,0,0-2.16-2.83,5.16,5.16,0,0,1-.71-.56c0-.67.33-.75.77-.61a4.58,4.58,0,0,1,3.1,2.88C116.66,111,116.94,111.82,117.26,112.71Z"/><path class="cls-2" d="M123.11,114.48c-.4,0-.64.06-.69,0-.84-1.14-1.66-2.29-2.53-3.51C121.39,110.82,121.88,111.38,123.11,114.48Z"/><path class="cls-2" d="M129.15,115.94c-1.1-.15-1.1-.15-2.19-2.86.27-.42.59-.2.76,0a9.53,9.53,0,0,1,.88,1.47C128.81,115,129,115.43,129.15,115.94Z"/><path class="cls-2" d="M90.45,131.24c.15-2.05.25-4.11.47-6.16a19.42,19.42,0,0,1,.67-2.86,6.17,6.17,0,0,0,.47-1.64c-.11-1.94,1-3.46,1.63-5.12a3.06,3.06,0,0,1,2-2,.93.93,0,0,1,.64.24.51.51,0,0,1,.09.44,3.28,3.28,0,0,1-.34.64,13.49,13.49,0,0,0-2.09,6,4.15,4.15,0,0,1-.33,1.44,13.32,13.32,0,0,0-.88,4.83c-.16,2.88-.34,5.76-.41,8.64A9.86,9.86,0,0,0,93.61,141,16.2,16.2,0,0,1,94.85,144a.81.81,0,0,1-.52,1,.82.82,0,0,1-1.06-.38c-2-3.08-3.52-6.32-3.07-10.16.13-1.06.17-2.13.25-3.2Z"/><path class="cls-2" d="M115.49,151.7c-.26.89-.83,1.05-1.36.7a7.44,7.44,0,0,1-1.55-1.52c-.57-.69-1.07-1.43-1.59-2.16a20,20,0,0,1-1.21-1.83c-.59-1.08-1.13-2.19-1.67-3.29-.37-.77-.32-1.39.12-1.51.65-.18.84.38,1.07.78s.5,1,.76,1.54a11.44,11.44,0,0,0,2.72,4.05,2.35,2.35,0,0,1,.46.57,16.61,16.61,0,0,0,1,1.67A7.63,7.63,0,0,0,115.49,151.7Z"/><path class="cls-2" d="M178,173.36c-.41.22-.75.55-1.07.53a1.56,1.56,0,0,1-1-.59,10.37,10.37,0,0,1-.84-1.49c-.36-.65-.66-1.33-1.07-1.93a13.6,13.6,0,0,0-1.23-1.45c.11-.6.4-.8.86-.5a4.48,4.48,0,0,1,1.12.95A29.92,29.92,0,0,1,178,173.36Z"/><path class="cls-2" d="M146.84,163.07a.82.82,0,0,1-1.33.32,6.1,6.1,0,0,1-2.61-3.48.69.69,0,0,1,.29-.58.69.69,0,0,1,.65.11C144.84,160.61,145.81,161.81,146.84,163.07Z"/><path class="cls-2" d="M132.87,159c-.92,0-1.5.27-1.79.07a5.4,5.4,0,0,1-2.61-3.64c0-.12.16-.26.31-.49,1,.23,1,1.35,1.67,1.9Z"/><path class="cls-2" d="M139.61,161.54a5.38,5.38,0,0,1-1.71,0,7.66,7.66,0,0,1-2.52-2.91c.23-.05.49-.2.65-.13a3.85,3.85,0,0,1,.76.6Z"/><path class="cls-2" d="M123.79,154.19l2.53,2.83c-.11.51-.6.58-1,.32a3,3,0,0,1-1.76-2.88C123.51,154.4,123.61,154.35,123.79,154.19Z"/><path class="cls-2" d="M193.88,163.12a1.49,1.49,0,0,1-.49-.07c-.19-.12-.44-.28-.48-.46a.59.59,0,0,1,.31-.53,19,19,0,0,1,3.56-.91,9.74,9.74,0,0,0,2.85-.68c4-1.62,8.23-2.3,12.4-3.21a1.39,1.39,0,0,1,.73,0,1.07,1.07,0,0,1,.47.47.43.43,0,0,1-.15.42,3.8,3.8,0,0,1-1.08.55c-1.74.48-3.5.91-5.24,1.37a32.32,32.32,0,0,0-4.51,1.26c-2.53,1.1-5.22,1.32-7.88,1.76A2.68,2.68,0,0,1,193.88,163.12Z"/><path class="cls-2" d="M192.67,120.45a16.26,16.26,0,0,1,4.17-1.08,8.1,8.1,0,0,0,2.84-.68,72,72,0,0,1,12.17-3.12c.45-.09,1-.22,1.34.27.23.32-.22.86-1.05,1.1-1.42.41-2.85.8-4.3,1.11a51.69,51.69,0,0,0-8,2.38,7.43,7.43,0,0,1-2.88.56,18.86,18.86,0,0,0-2.67.38A1.32,1.32,0,0,1,192.67,120.45Z"/><path class="cls-2" d="M192.72,78.66c1.89-.5,3.48-1.2,5.26-1.18a4.69,4.69,0,0,0,1.63-.52,71,71,0,0,1,11.92-3.07,2.8,2.8,0,0,1,1-.13c.27,0,.5.31.75.48-.18.24-.31.58-.55.7a8.51,8.51,0,0,1-1.63.57c-1.51.38-3,.68-4.55,1.1-2.14.6-4.27,1.22-6.37,1.94a9.53,9.53,0,0,1-3.34.69,21.08,21.08,0,0,0-2.93.35C193.5,79.64,193.4,79.54,192.72,78.66Z"/></g></g></svg>