<?xml version="1.0" encoding="utf-8"?>
<!-- Generator: Adobe Illustrator 22.1.0, SVG Export Plug-In . SVG Version: 6.00 Build 0)  -->
<svg version="1.1" id="Layer_1" xmlns="http://www.w3.org/2000/svg" xmlns:xlink="http://www.w3.org/1999/xlink" x="0px" y="0px"
	 viewBox="0 0 558.7 64.9" style="enable-background:new 0 0 558.7 64.9;" xml:space="preserve">
<style type="text/css">
	.st0{fill:#303840;}
</style>
<g>
	<g>
		<path class="st0" d="M131.3,8.9h-21.5v15.5h21.5v8.7h-21.5v31.1h-9.3v-64h30.8V8.9z"/>
		<path class="st0" d="M171.2,32c0-8.7,3.2-16.1,9.5-22.4c6.3-6.2,13.9-9.3,22.8-9.3c8.8,0,16.3,3.1,22.6,9.4
			c6.3,6.3,9.5,13.8,9.5,22.6c0,8.9-3.2,16.4-9.5,22.6c-6.4,6.2-14,9.3-23,9.3c-8,0-15.1-2.8-21.4-8.3
			C174.7,49.9,171.2,41.9,171.2,32z M180.6,32.1c0,6.8,2.3,12.4,6.9,16.8c4.6,4.4,9.8,6.6,15.8,6.6c6.5,0,11.9-2.2,16.4-6.7
			c4.4-4.5,6.7-10,6.7-16.5c0-6.6-2.2-12.1-6.6-16.5c-4.4-4.5-9.8-6.7-16.2-6.7c-6.4,0-11.8,2.2-16.3,6.7
			C182.8,20.2,180.6,25.6,180.6,32.1z"/>
	</g>
	<path class="st0" d="M30.5,39.7h20c-0.4,4.3-2.5,8.1-6.1,11.2c-3.7,3.1-7.8,4.6-12.4,4.6c-5.4,0-10.4-2.1-15-6.2
		c-4.9-4.5-7.4-10.1-7.4-17c0-6.7,2.2-12.2,6.6-16.6c4.4-4.5,9.9-6.8,16.4-6.8c5,0,9.5,1.6,13.5,4.8l6.4-6.2
		c-2.2-1.8-4.4-3.3-6.6-4.4c-4.2-2-8.7-3-13.5-3c-9,0-16.6,3.1-22.9,9.4c-6,6.3-9.2,13.9-9.2,22.9c0,8.8,3.1,16.3,9.2,22.5
		c6.2,6.2,13.6,9.4,22.2,9.4c8.8,0,16.1-3.2,21.9-9.7c2.5-2.9,4.3-6,5.4-9.3c1.1-3.6,1.6-7.7,1.6-12.3v-2H30.5V39.7z"/>
	<g>
		<path class="st0" d="M556.8,10.8l-7.5,4.4c-1.4-2.4-2.7-4-4-4.8s-3-1.3-5.1-1.3c-2.6,0-4.7,0.7-6.4,2.2c-1.7,1.4-2.5,3.2-2.5,5.4
			c0,3,2.2,5.4,6.7,7.2l6.1,2.5c5,2,8.6,4.5,10.9,7.4c2.3,2.9,3.4,6.4,3.4,10.6c0,5.6-1.9,10.3-5.6,14c-3.8,3.7-8.5,5.5-14.1,5.5
			c-5.3,0-9.7-1.6-13.2-4.7c-3.4-3.1-5.5-7.6-6.4-13.3l9.4-2.1c0.4,3.6,1.2,6.1,2.2,7.5c1.9,2.6,4.7,4,8.3,4c2.9,0,5.3-1,7.2-2.9
			s2.9-4.4,2.9-7.3c0-1.2-0.2-2.3-0.5-3.3s-0.8-1.9-1.5-2.7c-0.7-0.8-1.6-1.6-2.7-2.3c-1.1-0.7-2.4-1.4-4-2.1l-5.9-2.5
			c-8.4-3.5-12.6-8.7-12.6-15.5c0-4.6,1.8-8.4,5.3-11.5s7.9-4.7,13.1-4.7C547.3,0.5,552.8,3.9,556.8,10.8z"/>
	</g>
	<path class="st0" d="M294,35.5l20.5,28.4h-11.3l-19-27.4h-1.7v27.4h-9.2V0.5h10.8c8.1,0,13.9,1.5,17.5,4.5c4,3.4,5.9,7.8,5.9,13.4
		c0,4.3-1.2,8-3.7,11.2C301.3,32.7,298.1,34.7,294,35.5z M282.5,28.5h2.9c8.7,0,13.1-3.3,13.1-10c0-6.3-4.2-9.4-12.7-9.4h-3.3V28.5z
		"/>
	<path class="st0" d="M479.6,9.1h-24.5v15.3h24.5v8.7h-24.5v22.2h24.5V64h-33.7V0.5h33.7V9.1z"/>
	<g>
		<path class="st0" d="M400,50.5c-4,3.2-8.7,4.8-14.2,4.8c-5.9,0-11.1-2.2-15.7-6.5c-4.5-4.4-6.8-9.9-6.8-16.7
			c0-6.5,2.2-11.9,6.6-16.3s9.8-6.7,16.1-6.7c5.4,0,10,1.6,14,4.7l6.2-6.2c-5.7-4.8-12.4-7.2-20.1-7.2c-8.8,0-16.4,3.1-22.7,9.3
			c-6.3,6.2-9.5,13.6-9.5,22.2c0,9.8,3.5,17.7,10.4,23.8c6.3,5.5,13.4,8.2,21.3,8.2s14.7-2.4,20.6-7.2L400,50.5z"/>
	</g>
</g>
<path class="st0" d="M30.5,39.7h20c-0.4,4.3-2.5,8.1-6.1,11.2c-3.7,3.1-7.8,4.6-12.4,4.6c-5.4,0-10.4-2.1-15-6.2
	c-4.9-4.5-7.4-10.1-7.4-17c0-6.7,2.2-12.2,6.6-16.6c4.4-4.5,9.9-6.8,16.4-6.8c5,0,9.5,1.6,13.5,4.8l6.4-6.2
	c-2.2-1.8-4.4-3.3-6.6-4.4c-4.2-2-8.7-3-13.5-3c-9,0-16.6,3.1-22.9,9.4c-6,6.3-9.2,13.9-9.2,22.9c0,8.8,3.1,16.3,9.2,22.5
	c6.2,6.2,13.6,9.4,22.2,9.4c8.8,0,16.1-3.2,21.9-9.7c2.5-2.9,4.3-6,5.4-9.3c1.1-3.6,1.6-7.7,1.6-12.3v-2H30.5V39.7z"/>
</svg>
